<svg width="111" height="26" viewBox="0 0 111 26" fill="none" xmlns="http://www.w3.org/2000/svg">
    <path fill-rule="evenodd" clip-rule="evenodd" d="M57.5803 7.47709C55.8819 7.47709 54.5292 8.13745 53.6677 9.38658L53.5472 9.56128L53.4293 9.38497C52.5949 8.13691 51.2964 7.47709 49.675 7.47709C48.1231 7.47709 46.8602 8.08295 46.0221 9.2295L45.909 9.37055L45.2133 7.79658L41.3129 7.79124L42.3597 10.1591V20.5101H46.1538V13.1671C46.1538 11.5894 46.9712 10.6469 48.3403 10.6469C49.693 10.6469 50.5003 11.5894 50.5003 13.1671V20.5101H54.2944V13.1671C54.2944 11.5894 55.1118 10.6469 56.4804 10.6469C57.8331 10.6469 58.6409 11.5894 58.6409 13.1671V20.5101H62.4345V12.6339C62.4345 9.50091 60.5294 7.47709 57.5803 7.47709ZM73.5906 12.8348L73.5545 12.6574C73.2603 11.2149 72.1997 10.3541 70.7163 10.3541C69.217 10.3541 68.1464 11.2149 67.8527 12.6569L67.8166 12.8348H73.5906ZM76.8802 12.3844V15.5788H67.9031L67.9605 15.7695C68.2494 16.7248 68.934 17.3884 69.9404 17.717C70.7737 17.9627 71.8911 17.9515 72.7276 17.6913C73.487 17.4546 73.9342 17.1998 73.9342 17.1998L75.9115 19.4597C74.656 20.3189 72.965 20.8296 71.3706 20.8296C67.1522 20.8296 64.3177 18.1465 64.3177 14.1534C64.3177 10.2852 67.0088 7.47709 70.7163 7.47709C73.9215 7.47709 76.1669 9.26476 76.8802 12.3844ZM36.4317 14.1528C36.4317 12.3224 35.1485 10.9937 33.3816 10.9937C31.6141 10.9937 30.331 12.3224 30.331 14.1534C30.331 15.9843 31.6141 17.313 33.3816 17.313C35.1485 17.313 36.4317 15.9838 36.4317 14.1528ZM40.2253 14.1528C40.2253 16.0415 39.4923 17.7613 38.1625 18.9955C36.8873 20.1783 35.1894 20.8296 33.3816 20.8296C31.5732 20.8296 29.8753 20.1783 28.6002 18.9955C27.2698 17.7613 26.5374 16.0415 26.5374 14.1534C26.5374 12.2647 27.2703 10.5449 28.6002 9.31071C29.8753 8.12837 31.5732 7.47709 33.3816 7.47709C35.1894 7.47709 36.8868 8.12837 38.1625 9.31071C39.4929 10.5449 40.2253 12.2647 40.2253 14.1528ZM22.0343 4.65186H18.2402V7.79712H16.4344V10.9675H18.2402V16.3129C18.2402 19.2551 19.6061 20.5107 22.8076 20.5107H24.6255V17.3365L23.5399 17.3195C22.5128 17.3195 22.0343 16.7708 22.0343 15.5922V10.9664H24.6765L26.0653 7.79605H22.0343V4.65186ZM10.363 14.0198C10.2823 12.2636 8.99968 10.9937 7.31294 10.9937C5.54546 10.9937 4.26234 12.3224 4.26234 14.1534C4.26234 15.9843 5.54546 17.313 7.31294 17.313C9.00075 17.313 10.2833 16.0431 10.363 14.2933V14.0198ZM14.1566 17.7447L14.8969 20.5101H11.4799L10.995 18.739L10.8192 18.9303C9.69329 20.1554 8.16906 20.8296 6.52798 20.8296C4.93152 20.8296 3.43065 20.1805 2.30261 19.0019C1.11987 17.7666 0.46875 16.0447 0.46875 14.1534C0.46875 12.262 1.11987 10.5401 2.30261 9.30483C3.43065 8.12623 4.93152 7.47709 6.52745 7.47709C8.09258 7.47709 9.55255 8.08616 10.6392 9.19264L10.8867 9.44481V7.79658H14.1566V17.7447Z" fill="black"/>
    <rect x="82.6006" y="0.914551" width="27.9651" height="24.552" rx="5.02643" fill="#F1FF60"/>
    <path fill-rule="evenodd" clip-rule="evenodd" d="M107.013 21.8952H103.106L100.875 18.1387C99.3869 19.1678 97.8309 19.691 96.2321 19.691C96.1722 19.691 96.1038 19.691 96.044 19.691C94.3084 19.6481 92.7523 18.9877 91.4271 18.0786L89.1614 21.8952H85.2627L96.138 3.59277L100.327 10.6341C100.327 10.6341 99.8144 11.0801 99.1817 11.5175C98.72 11.8349 97.6684 12.5038 96.7621 11.2088L96.138 10.171L93.1627 15.1712C94.0775 15.8144 95.0864 16.269 96.138 16.2947C97.9335 16.3376 99.7546 15.154 101.576 12.7697H105.645C104.919 13.9361 104.175 14.9567 103.414 15.8316L107.013 21.8952Z" fill="#010202"/>
</svg>
