<svg width="21" height="21" viewBox="0 0 21 21" fill="none" xmlns="http://www.w3.org/2000/svg">
<path d="M14.55 11.5C15.3 11.5 15.96 11.09 16.3 10.47L19.88 3.98C20.25 3.32 19.77 2.5 19.01 2.5H4.21L3.27 0.5H0V2.5H2L5.6 10.09L4.25 12.53C3.52 13.87 4.48 15.5 6 15.5H18V13.5H6L7.1 11.5H14.55ZM5.16 4.5H17.31L14.55 9.5H7.53L5.16 4.5ZM6 16.5C4.9 16.5 4.01 17.4 4.01 18.5C4.01 19.6 4.9 20.5 6 20.5C7.1 20.5 8 19.6 8 18.5C8 17.4 7.1 16.5 6 16.5ZM16 16.5C14.9 16.5 14.01 17.4 14.01 18.5C14.01 19.6 14.9 20.5 16 20.5C17.1 20.5 18 19.6 18 18.5C18 17.4 17.1 16.5 16 16.5Z" fill="#323232"/>
</svg>
