<svg width="100" height="100" viewBox="0 0 112 112" fill="none" xmlns="http://www.w3.org/2000/svg">
    <path d="M101.059 33.1651C101.006 30.6001 100.961 28.1849 100.961 25.8449C100.961 24.0074 99.4764 22.5226 97.6389 22.5226C83.4415 22.5226 72.634 18.4426 63.619 9.68254C62.329 8.43004 60.2816 8.43004 58.9916 9.68254C49.9841 18.4426 39.1765 22.5226 24.979 22.5226C23.149 22.5226 21.6566 24.0074 21.6566 25.8449C21.6566 28.1849 21.6116 30.6076 21.5591 33.1651C21.1016 56.9926 20.4791 89.6328 60.2141 103.41C60.9191 103.658 61.684 103.658 62.389 103.41C102.131 89.6328 101.509 57.0001 101.059 33.1651Z" fill="#C9E5FA"/>
    <path d="M50.2298 104.167C49.9673 104.167 49.7048 104.122 49.4573 104.039C9.00227 90.0141 9.63979 56.6318 10.1048 32.2569C10.1573 29.6019 10.2023 27.0895 10.2023 24.6445C10.2023 23.347 11.2598 22.2894 12.5573 22.2894C27.5798 22.2894 39.0249 17.9618 48.5874 8.66937C49.5024 7.77688 50.9574 7.77688 51.8724 8.66937C61.4274 17.9618 72.8798 22.2894 87.9024 22.2894C89.1999 22.2894 90.2574 23.347 90.2574 24.6445C90.2574 27.0145 90.3024 29.4592 90.3549 32.0467L90.3624 32.2569C90.8274 56.6318 91.4649 90.0216 51.0099 104.039C50.7549 104.122 50.4923 104.167 50.2298 104.167ZM49.5174 14.2119C40.2174 22.3119 29.5448 26.3544 15.9323 26.9319L14.9048 26.9769L14.8898 28.0045C14.8673 29.392 14.8448 30.8169 14.8148 32.2719C14.3348 57.5318 13.7873 86.0767 49.8548 99.1791L50.2223 99.3139L50.5973 99.1791C86.6649 86.0767 86.1248 57.5317 85.6448 32.3393C85.6148 30.8543 85.5924 29.4068 85.5699 27.9968L85.5548 26.9692L84.5274 26.9245C70.9148 26.347 60.2424 22.3117 50.9424 14.2043L50.2298 13.5821L49.5174 14.2119Z" fill="#0C2B65"/>
    <path d="M44.5152 70.3197C43.7652 70.3197 43.0452 70.0271 42.5202 69.4946L31.1052 58.0793C30.0027 56.9768 30.0027 55.1846 31.1052 54.082C32.2077 52.9795 34.0002 52.9795 35.1027 54.082L44.5227 63.5018L65.3652 42.6667C66.4677 41.5642 68.2602 41.5642 69.3627 42.6667C70.4652 43.7692 70.4652 45.5618 69.3627 46.6643L46.5252 69.5019C45.9852 70.0269 45.2652 70.3272 44.5152 70.3197Z" fill="#0C2B65"/>
</svg>
