<svg width="100" height="100" viewBox="0 0 83 95" fill="none" xmlns="http://www.w3.org/2000/svg">
    <path d="M29.7768 6.65918H65.0493C66.0018 6.65918 66.7743 7.43168 66.7743 8.38418V21.0592C66.7743 22.0117 66.0018 22.7842 65.0493 22.7842H29.7768C28.8243 22.7842 28.0518 22.0117 28.0518 21.0592V8.38418C28.0518 7.43168 28.8243 6.65918 29.7768 6.65918Z" fill="#C9E5FA"/>
    <path d="M39.1289 8.53418C39.1289 3.95922 42.8339 0.246758 47.4089 0.239258C51.9839 0.239258 55.6964 3.94423 55.7039 8.51919C55.7039 8.52669 55.7039 8.52668 55.7039 8.53418" fill="#C9E5FA"/>
    <path d="M19.0293 15.3369H75.7217C79.3292 15.3369 82.2617 18.2619 82.2617 21.8769V86.0618C82.2617 89.6693 79.3367 92.6018 75.7217 92.6018H19.0293C15.4218 92.6018 12.4893 89.6768 12.4893 86.0618V21.8769C12.4968 18.2619 15.4218 15.3369 19.0293 15.3369Z" fill="#C9E5FA"/>
    <path d="M65.5211 12.4271H56.9411V8.58707C56.9411 7.34207 55.5836 6.77957 54.3461 6.77957H47.6861C46.1036 2.26457 42.1511 0.00706831 37.6361 0.00706831C33.1661 -0.157932 29.1086 2.57957 27.5861 6.77957H21.0461C19.8011 6.77957 18.5636 7.34207 18.5636 8.58707V12.4271H9.98359C4.89859 12.4796 0.736094 16.4921 0.496094 21.5696V86.2496C0.496094 91.2146 5.01109 94.8296 9.97609 94.8296H65.5136C70.4786 94.8296 74.9936 91.2146 74.9936 86.2496V21.5696C74.7536 16.4921 70.5986 12.4871 65.5211 12.4271ZM23.0786 11.3021H29.2886C30.3761 11.1671 31.2461 10.3421 31.4336 9.26957C32.1011 6.35957 34.6586 4.26707 37.6436 4.19207C40.5986 4.28207 43.1186 6.37457 43.7411 9.26957C43.9436 10.3796 44.8736 11.2196 45.9986 11.3021H52.4336V20.3321H23.0786V11.3021ZM70.4861 86.2496C70.4861 88.7321 68.0036 90.3146 65.5211 90.3146H9.98359C7.50109 90.3146 5.01859 88.7321 5.01859 86.2496V21.5621C5.25109 18.9746 7.38859 16.9796 9.98359 16.9346H18.5636V22.6946C18.6836 23.9621 19.7786 24.9071 21.0461 24.8396H54.3461C55.6361 24.9071 56.7686 23.9771 56.9411 22.6946V16.9346H65.5211C68.1161 16.9796 70.2536 18.9746 70.4861 21.5621V86.2496Z" fill="#0C2B65"/>
    <path d="M29.0562 50.4663C28.2087 49.5738 26.8063 49.5213 25.8988 50.3538L18.6763 57.2387L15.6313 54.0813C14.7838 53.1888 13.3813 53.1363 12.4738 53.9688C11.6038 54.8838 11.6038 56.3238 12.4738 57.2463L17.1013 61.9862C17.4988 62.4362 18.0838 62.6837 18.6838 62.6612C19.2763 62.6537 19.8463 62.4137 20.2663 61.9862L29.0712 53.6313C29.9412 52.8288 30.0012 51.4788 29.2062 50.6013C29.1462 50.5488 29.1012 50.5038 29.0562 50.4663Z" fill="#0C2B65"/>
    <path d="M61.4569 55.3193H35.4919C34.2469 55.3193 33.2344 56.3318 33.2344 57.5767C33.2344 58.8216 34.2469 59.834 35.4919 59.834H61.4569C62.7018 59.834 63.7144 58.8216 63.7144 57.5767C63.7144 56.3318 62.7018 55.3193 61.4569 55.3193Z" fill="#0C2B65"/>
    <path d="M29.0562 32.4063C28.2087 31.5138 26.8063 31.4613 25.8988 32.2938L18.6763 39.1788L15.6313 36.0213C14.7838 35.1288 13.3813 35.0763 12.4738 35.9088C11.6038 36.8238 11.6038 38.2638 12.4738 39.1863L17.1013 43.9264C17.4988 44.3764 18.0838 44.6239 18.6838 44.6014C19.2763 44.5939 19.8463 44.3539 20.2663 43.9264L29.0712 35.5713C29.9412 34.7688 30.0012 33.4188 29.2062 32.5413C29.1462 32.4888 29.1012 32.4438 29.0562 32.4063Z" fill="#0C2B65"/>
    <path d="M61.4569 37.2593H35.4919C34.2469 37.2593 33.2344 38.2718 33.2344 39.5167C33.2344 40.7617 34.2469 41.7742 35.4919 41.7742H61.4569C62.7018 41.7742 63.7144 40.7617 63.7144 39.5167C63.7144 38.2718 62.7018 37.2593 61.4569 37.2593Z" fill="#0C2B65"/>
    <path d="M29.0562 68.5269C28.2087 67.6344 26.8063 67.5819 25.8988 68.4144L18.6763 75.2994L15.6313 72.1419C14.7838 71.2494 13.3813 71.1969 12.4738 72.0294C11.6038 72.9444 11.6038 74.3844 12.4738 75.2994L17.1013 80.0394C17.4988 80.4894 18.0838 80.7369 18.6838 80.7144C19.2763 80.7069 19.8463 80.4669 20.2663 80.0394L29.0712 71.6844C29.9412 70.8819 30.0012 69.5319 29.2062 68.6544C29.1462 68.6169 29.1012 68.5719 29.0562 68.5269Z" fill="#0C2B65"/>
    <path d="M61.4553 73.3799H35.4903C34.2453 73.3799 33.2328 74.3924 33.2403 75.6448C33.2403 76.8898 34.2528 77.8948 35.4903 77.8948H61.4553C62.7003 77.8948 63.7128 76.8823 63.7053 75.6298C63.7053 74.3924 62.6928 73.3799 61.4553 73.3799Z" fill="#0C2B65"/>
</svg>
