<svg width="100" height="100" viewBox="0 0 114 112" fill="none" xmlns="http://www.w3.org/2000/svg">
    <path d="M72.1256 89.8329H45.4631C28.0031 89.8329 13.8506 75.6804 13.8506 58.2205V52.138C13.8506 34.678 28.0031 20.5181 45.4631 20.5181H81.8906C99.3506 20.5181 113.503 34.6705 113.503 52.138V58.2205C113.503 73.5054 102.568 86.6079 87.5231 89.3379V105.38L72.1256 89.8329Z" fill="#C9E5FA"/>
    <path d="M29.0359 18.4609H25.3609C25.9159 14.3659 28.1809 14.1559 29.2234 14.0659C30.2659 13.9684 31.0609 13.0984 31.0609 12.0559V6.00334C31.0609 4.88584 30.1534 3.98584 29.0434 3.98584C29.0434 3.98584 29.0434 3.98584 29.0359 3.98584C28.9984 3.98584 28.9609 3.98584 28.9234 3.98584C22.5334 4.34584 14.9209 7.57085 14.9209 20.8984V31.4209C14.9209 33.1759 16.3459 34.6009 18.1084 34.6084H29.0434C30.7984 34.6084 32.2234 33.1834 32.2234 31.4209V21.6484C32.2159 19.8859 30.7984 18.4684 29.0359 18.4609ZM28.1809 30.5584H18.9634V20.9059C18.9634 11.6134 23.0959 9.01085 27.0184 8.28335V10.3984C24.3109 11.2234 21.1984 13.6534 21.1984 20.4859C21.1984 21.6034 22.1059 22.5109 23.2159 22.5109H28.1809V30.5584Z" fill="#0C2B65"/>
    <path d="M49.6951 18.4609H46.0201C46.5751 14.3659 48.8401 14.1559 49.8826 14.0659C50.9251 13.9684 51.7201 13.0984 51.7201 12.0559V6.00334C51.7201 4.88584 50.8126 3.98584 49.7026 3.98584C49.7026 3.98584 49.7026 3.98584 49.6951 3.98584C49.6576 3.98584 49.6201 3.98584 49.5826 3.98584C43.1926 4.34584 35.5801 7.57085 35.5801 20.8984V31.4209C35.5801 33.1759 37.0051 34.6009 38.7676 34.6084H49.7026C51.4576 34.6084 52.8826 33.1834 52.8901 31.4209V21.6484C52.8826 19.8859 51.4576 18.4609 49.6951 18.4609ZM48.8401 30.5584H39.6301V20.9059C39.6301 11.6134 43.7626 9.01085 47.6851 8.27585V10.3909C44.9776 11.2234 41.8651 13.6534 41.8651 20.4859C41.8651 21.6034 42.7726 22.5109 43.8826 22.5109H48.8476V30.5584H48.8401Z" fill="#0C2B65"/>
    <path d="M61.6214 20.3197C60.8338 19.5321 59.5511 19.5321 58.7635 20.3197C57.976 21.1073 57.976 22.3899 58.7635 23.1775C59.5511 23.9651 60.8338 23.9651 61.6214 23.1775C61.9964 22.8025 62.2139 22.2849 62.2139 21.7523C62.2139 21.2123 61.9964 20.6947 61.6214 20.3197Z" fill="#0C2B65"/>
    <path d="M71.5566 19.7193H69.0141C67.8966 19.7193 66.9966 20.6268 66.9966 21.7443C66.9966 22.8618 67.9041 23.7618 69.0141 23.7618H71.5566C89.1666 23.7543 103.439 38.0267 103.447 55.6292C103.454 70.7116 92.8941 83.7241 78.1341 86.8366C77.1966 87.0316 76.5291 87.8566 76.5291 88.8166V100.562L64.0791 88.1116C63.6966 87.7366 63.1866 87.5191 62.6466 87.5191H39.9216C22.3116 87.5191 8.03908 73.2391 8.03908 55.6292C8.03908 50.2217 9.41908 44.8967 12.0441 40.1642C12.5616 39.1742 12.1791 37.9517 11.1966 37.4342C10.2441 36.9317 9.05908 37.2692 8.51158 38.1992C-1.11842 55.5392 5.13658 77.4091 22.4766 87.0391C27.8091 90.0016 33.8166 91.5541 39.9216 91.5541H61.8216L77.1216 106.862C77.9091 107.649 79.1916 107.649 79.9791 106.862C80.3616 106.479 80.5716 105.969 80.5716 105.429V90.4216C99.7791 85.4716 111.337 65.8816 106.387 46.6742C102.292 30.7892 87.9591 19.6968 71.5566 19.7193Z" fill="#0C2B65"/>
    <path d="M80.6126 39.8555H30.8727C29.7552 39.8555 28.8477 40.7555 28.8477 41.8731C28.8477 42.9906 29.7477 43.8982 30.8652 43.8982H80.6126C81.7301 43.8982 82.6376 42.9981 82.6376 41.8806C82.6376 40.763 81.7376 39.8555 80.6201 39.8555H80.6126V39.8555Z" fill="#0C2B65"/>
    <path d="M80.6126 50.6333H30.8727C29.7552 50.6333 28.8477 51.5332 28.8477 52.6507C28.8477 53.7681 29.7477 54.6755 30.8652 54.6755H80.6126C81.7301 54.6755 82.6376 53.7756 82.6376 52.6582C82.6376 51.5407 81.7376 50.6333 80.6201 50.6333H80.6126V50.6333Z" fill="#0C2B65"/>
    <path d="M80.6126 61.4116H30.8727C29.7552 61.4116 28.8477 62.3116 28.8477 63.429C28.8477 64.5464 29.7477 65.4539 30.8652 65.4539H80.6126C81.7301 65.4539 82.6376 64.5539 82.6376 63.4365C82.6376 62.3191 81.7376 61.4116 80.6201 61.4116H80.6126V61.4116Z" fill="#0C2B65"/>
    <path d="M80.6153 72.1909H54.0953C52.9778 72.1909 52.0703 73.0909 52.0703 74.2083C52.0703 75.3257 52.9703 76.2332 54.0878 76.2332H80.6078C81.7253 76.2332 82.6328 75.3332 82.6328 74.2158C82.6403 73.0984 81.7328 72.1909 80.6153 72.1909Z" fill="#0C2B65"/>
    <path d="M42.7349 72.187H42.7049C41.5873 72.187 40.6797 73.0871 40.6797 74.2047C40.6797 75.3224 41.5798 76.2299 42.6974 76.2299H42.7424C43.86 76.2299 44.7676 75.3299 44.7676 74.2122C44.7676 73.0946 43.8675 72.187 42.7499 72.187H42.7349V72.187Z" fill="#0C2B65"/>
</svg>
