<svg width="100" height="100" viewBox="0 0 99 99" fill="none" xmlns="http://www.w3.org/2000/svg">
    <path d="M74.4146 11.3233L97.9082 34.817C97.9082 34.817 78.7846 62.7866 54.4 53.3998C54.4 53.3998 50.2422 29.1955 74.4146 11.3233Z" fill="#C9E5FA"/>
    <path d="M33.4889 94.2507L10.9128 71.6745C10.9128 71.6745 28.6842 45.3965 51.9232 54.6137C51.9232 54.6137 56.1765 77.6195 33.4889 94.2507Z" fill="#C9E5FA"/>
    <path d="M90.2706 27.9011C88.9712 27.6413 87.6879 28.4368 87.3484 29.7201C87.1946 30.4361 86.9666 31.1308 86.6537 31.7937L85.54 31.6665L84.0074 31.9369L64.1253 11.917L64.2632 11.079L64.1306 10.2464C65.6526 9.55169 66.7716 9.27061 67.0474 9.13273C68.3096 8.85696 69.1157 7.61598 68.8558 6.34849C68.5854 5.00676 67.2755 4.14232 65.939 4.40748C64.1995 4.96963 62.5184 5.7174 60.938 6.62956L59.5485 6.34319C56.9499 6.37501 54.8498 8.47512 54.818 11.0737L54.9612 11.2169C51.8216 14.505 49.4458 18.4506 48.0033 22.7675C46.4547 23.5842 45.4948 25.1911 45.5001 26.9359C45.4948 27.9276 45.7865 28.8981 46.3327 29.7201C45.7016 34.7954 45.7016 39.929 46.338 45.0096L46.9002 49.8886C47.3722 54.6987 47.2767 59.5565 46.6191 64.3507L45.6433 64.6265L32.2949 51.1402L32.5654 50.3076C35.9807 49.8621 39.4172 49.6394 42.8591 49.6234L42.8591 44.8929C38.8445 44.8346 34.8405 45.1581 30.8895 45.8634C30.0357 45.2535 29.0228 44.9194 27.9727 44.8982C25.9946 44.8717 24.2074 46.0967 23.5232 47.9582C19.8003 49.2946 16.2471 51.0659 12.9484 53.2403L12.3969 53.2403C10.0635 53.2085 8.08002 54.9373 7.80425 57.2602C5.92158 58.9095 4.24044 60.771 2.80324 62.8234C2.23579 63.7727 2.40548 64.9924 3.21688 65.7508L3.63055 66.0266C4.57453 66.7478 5.92157 66.5675 6.64282 65.6235C6.71176 65.5334 6.78072 65.4326 6.83375 65.3265C7.10952 65.0507 7.94214 63.656 9.61268 61.7097L11.2885 62.5476L34.92 86.3276L35.2011 87.436C34.1139 88.4489 32.9525 89.377 31.7274 90.2202C30.5872 90.9149 30.2107 92.4052 30.8842 93.556L31.3085 93.9697C32.0562 94.7917 33.2813 94.9667 34.2306 94.3886C35.7473 93.3386 37.1898 92.1718 38.5369 90.9097L39.6506 91.0475C42.2386 91.0688 44.3546 88.9952 44.3864 86.4071L44.3864 86.3223C44.3811 85.6488 44.2379 84.9858 43.9728 84.3707C46.3009 80.9394 48.1252 77.1953 49.3874 73.2497C50.9678 72.4542 51.986 70.8526 52.0285 69.0813C52.0497 68.0948 51.7527 67.119 51.1852 66.3076C52.0974 61.0786 52.2883 55.7434 51.7421 50.4667L51.3337 45.5929C50.6549 41.1806 50.5117 36.6993 50.9095 32.2498L64.539 46.0172C60.8319 46.2983 57.1143 46.3036 53.4126 46.0172L55.6347 51.0288C59.4107 51.1243 63.1813 50.8432 66.9042 50.1962C67.7209 50.7796 68.6808 51.1137 69.6885 51.1561C71.6719 51.1773 73.4538 49.9575 74.1379 48.0961C78.2586 46.5422 82.0027 44.1239 85.1158 41.0003L85.5294 41.1488C88.1174 41.17 90.244 39.0858 90.2599 36.4925L90.26 36.4182L89.9789 34.8856C90.8221 33.6287 91.5221 32.2816 92.0684 30.8657C92.3707 29.5345 91.5699 28.2246 90.2706 27.9011ZM41.1779 81.8622L40.34 81.7349L16.9843 58.0822L16.9843 57.9443L16.8411 56.8465C19.2541 55.2502 21.8156 53.8979 24.4884 52.8054C25.4324 53.6858 26.6734 54.1843 27.9674 54.1949L28.1053 54.1949L42.5621 68.9381L42.5568 69.0706C42.5833 70.9639 43.7341 72.6557 45.4736 73.3875C44.3864 76.3733 42.9439 79.2159 41.1779 81.8622ZM73.8569 44.1769C73.1303 42.867 71.8575 41.9443 70.3779 41.6632L54.8021 26.098C54.7066 25.3131 54.3672 24.5812 53.8263 24.0085C54.8869 20.9644 56.4938 18.1377 58.5621 15.6664L59.5379 15.8043L60.6463 15.6717L80.9474 36.2485V36.3864C80.9315 37.5478 81.3239 38.6827 82.0611 39.579C79.6374 41.6102 76.8585 43.1693 73.8569 44.1769Z" fill="#0C2B65"/>
</svg>
