<svg width="23" height="23" viewBox="0 0 23 23" fill="none" xmlns="http://www.w3.org/2000/svg">
    <path d="M13.233 10.7884C14.0764 10.838 14.9222 10.8309 15.7648 10.7669L16.1797 10.7354L15.8869 10.4398L12.4278 6.94717L12.1364 6.65296L12.0996 7.06541C11.9978 8.20675 12.0357 9.35635 12.2091 10.4889L12.3134 11.7193L12.3133 11.7193L12.3137 11.7228C12.4502 13.0466 12.4006 14.379 12.1729 15.6911L12.1592 15.7704L12.2059 15.8358C12.3269 16.0051 12.3873 16.2112 12.384 16.4242C12.373 16.8024 12.1573 17.144 11.8194 17.313L11.7471 17.3491L11.7224 17.426C11.4051 18.4109 10.9519 19.342 10.371 20.1989L10.3117 20.2863L10.3536 20.3832C10.4111 20.5161 10.4426 20.658 10.4426 20.8016V20.8016V20.8017V20.8017V20.8018V20.8018V20.8019V20.8019V20.802V20.802V20.8021V20.8021V20.8022V20.8022V20.8023V20.8023V20.8024V20.8024V20.8025V20.8025V20.8025V20.8026V20.8026V20.8027V20.8027V20.8028V20.8028V20.8029V20.8029V20.803V20.803V20.8031V20.8031V20.8032V20.8032V20.8032V20.8033V20.8033V20.8034V20.8034V20.8035V20.8035V20.8036V20.8036V20.8037V20.8037V20.8037V20.8038V20.8038V20.8039V20.8039V20.804V20.804V20.8041V20.8041V20.8041V20.8042V20.8042V20.8043V20.8043V20.8044V20.8044V20.8045V20.8045V20.8045V20.8046V20.8046V20.8047V20.8047V20.8048V20.8048V20.8049V20.8049V20.8049V20.805V20.805V20.8051V20.8051V20.8052V20.8052V20.8052V20.8053V20.8053V20.8054V20.8054V20.8055V20.8055V20.8055V20.8056V20.8056V20.8057V20.8057V20.8057V20.8058V20.8058V20.8059V20.8059V20.806V20.806V20.806V20.8061V20.8061V20.8062V20.8062V20.8062V20.8063V20.8063V20.8064V20.8064V20.8064V20.8065V20.8065V20.8066V20.8066V20.8067V20.8067V20.8067V20.8068V20.8068V20.8069V20.8069V20.8069V20.807V20.807V20.8071V20.8071V20.8071V20.8072V20.8072V20.8073V20.8073V20.8073V20.8074V20.8074V20.8075V20.8075V20.8075V20.8076V20.8076V20.8077V20.8077V20.8077V20.8078V20.8078V20.8078V20.8079V20.8079V20.808V20.808V20.808V20.8081V20.8081V20.8082V20.8082V20.8082V20.8083V20.8083V20.8084V20.8084V20.8084V20.8085V20.8085V20.8085V20.8086V20.8086V20.8087V20.8087V20.8087V20.8088V20.8088V20.8089V20.8089V20.8089V20.809V20.809V20.809V20.8091V20.8091V20.8092V20.8092V20.8092V20.8093V20.8093V20.8093V20.8094V20.8094V20.8095V20.8095V20.8095V20.8096V20.8096V20.8097V20.8097V20.8097V20.8098V20.8098V20.8098V20.8099V20.8099V20.81V20.81V20.81V20.8101V20.8101V20.8101V20.8102V20.8102V20.8103V20.8103V20.8103V20.8104V20.8104V20.8104V20.8105V20.8105V20.8105V20.8106V20.8106V20.8107V20.8107V20.8107V20.8108V20.8108V20.8108V20.8109V20.8109V20.811V20.811V20.811V20.8111V20.8111V20.8111V20.8112V20.8112V20.8113V20.8113V20.8113V20.8114V20.8114V20.8114V20.8115V20.8115V20.8115V20.8116V20.8116V20.8117V20.8117V20.8117V20.8118V20.8118V20.8118V20.8119V20.8119V20.812V20.812V20.812V20.8121V20.8121V20.8121V20.8122V20.8122V20.8122V20.8123V20.8123V20.8124V20.8124V20.8124V20.8125V20.8125V20.8125V20.8126V20.8126V20.8127V20.8127V20.8127V20.8128V20.8128V20.8128V20.8129V20.8129V20.8129V20.813V20.813V20.8131V20.8131V20.8131V20.8132V20.8132V20.8132V20.8133V20.8133V20.8134V20.8134V20.8134V20.8135V20.8135V20.8135V20.8136V20.8136V20.8137V20.8137V20.8137V20.8138V20.8138V20.8138V20.8139V20.8139V20.814V20.814V20.814V20.8141V20.8141V20.8141V20.8142V20.8142V20.8143V20.8143V20.8143V20.8144V20.8144V20.8144V20.8145V20.8145V20.8146V20.8146V20.8146V20.8147V20.8147V20.8147V20.8148V20.8148V20.8149V20.8149V20.8149V20.815V20.815V20.815V20.8151V20.8151V20.8152V20.8152V20.8152V20.8153V20.8153V20.8153V20.8154V20.8154V20.8155V20.8155V20.8155V20.8156V20.8156V20.8157V20.8157V20.8157V20.8158V20.8158V20.8158V20.8159V20.8159V20.816V20.816V20.816V20.8161V20.8161V20.8162V20.8162V20.8162V20.8163V20.8163V20.8164V20.8164V20.8164V20.8165V20.8165V20.8166V20.8166V20.8166V20.8167V20.8167V20.8168V20.8168V20.8168V20.8169V20.8169V20.817V20.817V20.817V20.8171V20.8171V20.8172V20.8172V20.8172V20.8173V20.8173V20.8174V20.8174V20.8174V20.8175V20.8175V20.8176V20.8176V20.8176V20.8177V20.8177V20.8178V20.8178V20.8178V20.8179V20.8179V20.818V20.818V20.8181V20.8181V20.8181V20.8182V20.8182V20.8183V20.8183V20.8183V20.8184V20.8184V20.8185V20.8185V20.8186V20.8186V20.8186V20.8187V20.8187V20.8188V20.8188V20.8188V20.8189V20.8189V20.819V20.819V20.8191V20.8191V20.8191V20.8192V20.8192V20.8193V20.8193V20.8194V20.8194V20.8195V20.8195V20.8195V20.8196V20.8196V20.8197V20.8197V20.8198V20.8198V20.8198V20.8199V20.8199V20.82V20.82V20.8201V20.8201V20.8202V20.8202V20.8202V20.8203V20.8203V20.8204V20.8204V20.8205V20.8205V20.8206V20.8206V20.8207V20.8207V20.8207V20.8208V20.8208V20.8209V20.8209V20.821V20.821V20.8211V20.8211V20.8212V20.8212V20.8213V20.8213V20.8213V20.8214V20.8214V20.8215V20.8215V20.8216V20.8216V20.8217V20.8217V20.8218V20.8218V20.8219V20.8219V20.822V20.822V20.822C10.4388 21.3705 9.99445 21.8103 9.44785 21.8085L9.17315 21.7762L9.08503 21.7658L9.01995 21.8262C8.6835 22.138 8.32771 22.4284 7.95266 22.6856C7.78878 22.7818 7.58277 22.7496 7.45714 22.61L7.45752 22.6097L7.44749 22.6001L7.35946 22.5154C7.25723 22.3162 7.32593 22.0687 7.51901 21.9512L7.51913 21.9514L7.52669 21.9463C7.84641 21.7302 8.14751 21.4849 8.43005 21.2237L8.51406 21.1461L8.48593 21.0352L8.41465 20.7543L8.40172 20.7033L8.36466 20.666L2.36885 14.6325L2.34691 14.6104L2.31912 14.5964L1.89564 14.3825L1.76097 14.3145L1.66286 14.4291C1.44656 14.6819 1.28488 14.8982 1.16858 15.0598C1.1338 15.1082 1.1012 15.1543 1.07351 15.1934C1.05651 15.2175 1.04136 15.2389 1.02869 15.2566C1.01085 15.2816 0.996717 15.3009 0.985415 15.3157C0.974446 15.3299 0.969391 15.3355 0.968655 15.3364C0.968567 15.3365 0.968541 15.3365 0.968573 15.3365L0.946505 15.3585L0.932548 15.3864C0.926712 15.3981 0.917898 15.412 0.901841 15.4361C0.78557 15.5857 0.566246 15.6147 0.412844 15.4963L0.413057 15.496L0.403471 15.4895L0.312294 15.4275C0.181449 15.2965 0.154398 15.0988 0.247234 14.9397C0.60208 14.435 1.01798 13.9746 1.48295 13.5667L1.53818 13.5182L1.54704 13.4453C1.60649 12.9557 2.0263 12.5886 2.51902 12.5955L2.51902 12.5956H2.52175H2.66011H2.71785L2.76604 12.5638C3.59161 12.0189 4.47934 11.577 5.40869 11.2425L5.49325 11.212L5.52414 11.1276C5.66797 10.7348 6.04679 10.4717 6.46681 10.4781C6.69347 10.4856 6.91185 10.5576 7.09789 10.6899L7.16381 10.7368L7.24343 10.7225C8.17073 10.5557 9.10939 10.476 10.0527 10.4769V11.2936C9.23613 11.3016 8.42009 11.3603 7.60799 11.4662L7.48931 11.4817L7.45078 11.595L7.37951 11.8047L7.3412 11.9173L7.42493 12.0019L10.8128 15.4233L10.893 15.5043L11.0027 15.4727L11.25 15.4015L11.3702 15.3668L11.3873 15.243C11.5571 14.0122 11.5826 12.7643 11.4594 11.5288L11.4595 11.5288L11.4591 11.5259L11.3166 10.289L11.3164 10.2874C11.159 9.01587 11.159 7.72775 11.3164 6.45623L11.3251 6.38586L11.286 6.32667C11.1689 6.14924 11.1082 5.94305 11.1082 5.7282C11.1082 5.35439 11.3124 5.01397 11.6421 4.84213L11.711 4.80618L11.7356 4.73241C12.0914 3.665 12.6804 2.68748 13.4575 1.87358L13.5798 1.74544L13.4805 1.63374C13.5229 1.11974 13.9459 0.713107 14.4668 0.696613L14.7981 0.76365L14.869 0.778008L14.9318 0.742027C15.3194 0.519974 15.7312 0.337862 16.1551 0.199771C16.3906 0.15616 16.6143 0.309325 16.6601 0.541153L16.6606 0.543501C16.7056 0.757426 16.5674 0.971927 16.3498 1.02061L16.3291 1.02525L16.31 1.03424C16.31 1.03424 16.3086 1.03486 16.3053 1.03616L16.2904 1.04171C16.2774 1.04637 16.2608 1.05198 16.2396 1.05899C16.2296 1.06229 16.2187 1.06586 16.2071 1.06969C16.1704 1.08172 16.1259 1.09634 16.0763 1.11337C15.944 1.15873 15.77 1.22283 15.5698 1.31427L15.4366 1.37505L15.4597 1.51959L15.4885 1.69915L15.4596 1.88289L15.4446 1.97907L15.5131 2.04816L20.553 7.12573L20.6235 7.19675L20.7221 7.17978L21.0846 7.11742L21.342 7.14771L21.4804 7.16399L21.539 7.03757C21.6238 6.85467 21.6867 6.66667 21.7276 6.47376C21.7799 6.28727 21.9402 6.16125 22.1229 6.14786L22.2266 6.17444C22.45 6.23172 22.591 6.45541 22.5464 6.67999C22.4183 7.01687 22.2469 7.34296 22.0434 7.6462L21.9999 7.71108L22.0139 7.78794L22.0821 8.16056V8.16061V8.16065V8.16069V8.16073V8.16078V8.16082V8.16086V8.16091V8.16095V8.16099V8.16104V8.16108V8.16112V8.16117V8.16121V8.16125V8.1613V8.16134V8.16138V8.16143V8.16147V8.16152V8.16156V8.16161V8.16165V8.16169V8.16174V8.16178V8.16183V8.16187V8.16192V8.16196V8.16201V8.16205V8.1621V8.16214V8.16219V8.16223V8.16228V8.16232V8.16237V8.16241V8.16246V8.16251V8.16255V8.1626V8.16264V8.16269V8.16274V8.16278V8.16283V8.16288V8.16292V8.16297V8.16302V8.16306V8.16311V8.16316V8.1632V8.16325V8.1633V8.16335V8.16339V8.16344V8.16349V8.16354V8.16358V8.1636C22.0783 8.7 21.6461 9.1367 21.108 9.14987L21.0355 9.12378L20.9204 9.08232L20.834 9.1691C20.0653 9.94196 19.1411 10.539 18.1186 10.9235L18.0369 10.9542L18.0063 11.0359C17.8585 11.4298 17.4797 11.6925 17.0606 11.6869C16.8458 11.6756 16.6354 11.6036 16.4616 11.4795L16.3962 11.4327L16.317 11.4465C15.4259 11.6009 14.5197 11.672 13.6167 11.656L13.233 10.7884ZM9.80012 19.8511L10.0222 19.8859V19.7108C10.4646 19.0414 10.8295 18.323 11.1049 17.5677L11.168 17.3947L10.998 17.3242C10.6256 17.1696 10.3821 16.8075 10.3744 16.4057V16.3739V16.2953L10.3194 16.2392L6.65065 12.4992L6.5941 12.4416H6.51336H6.47688C6.19788 12.4377 5.92973 12.3302 5.72607 12.1408L5.63568 12.0568L5.52162 12.104C4.8312 12.3895 4.17053 12.739 3.54817 13.1482L3.4469 13.2148L3.46328 13.3349L3.49925 13.5987V13.6234V13.7023L3.55467 13.7585L9.4792 19.7626L9.5237 19.8077L9.58629 19.8176L9.80012 19.8511ZM17.9512 10.1908L18.0289 10.3303L18.1803 10.2795C18.9667 10.016 19.6921 9.60567 20.3222 9.07913L20.468 8.95733L20.348 8.81008C20.1921 8.6188 20.1067 8.3735 20.1103 8.12508L20.1103 8.12508V8.12233V8.0846V8.00571L20.0549 7.94955L14.9018 2.72523L14.8357 2.65815L14.7421 2.66932L14.4856 2.69996L14.2625 2.66971L14.157 2.65541L14.0889 2.73716C13.5501 3.38372 13.1318 4.12098 12.8558 4.9145L12.8175 5.02471L12.8975 5.10961C13.006 5.22467 13.0737 5.37482 13.0941 5.53453L13.1024 5.59976L13.1489 5.64623L17.1028 9.59591L17.1446 9.63767L17.2026 9.64875C17.5195 9.70928 17.7942 9.90889 17.9512 10.1908Z" fill="white" stroke="white" stroke-width="0.38462"/>
</svg>
