<svg width="20" height="25" viewBox="0 0 20 25" fill="none" xmlns="http://www.w3.org/2000/svg">
    <path d="M14.3318 3.20253V3.39484H14.5241H16.7328C17.9368 3.40689 18.9214 4.35515 18.9817 5.55942V22.2004C18.9817 23.3492 17.932 24.2178 16.7338 24.2178H2.44025C1.24204 24.2178 0.19231 23.3492 0.19231 22.2004V5.55945C0.252554 4.35517 1.23718 3.40689 2.4412 3.39484H4.6457H4.83801V3.20253V2.21302C4.83801 2.12947 4.87509 2.06982 4.94857 2.02277C5.02893 1.97131 5.14935 1.93992 5.28302 1.93992H6.96855H7.10316L7.14925 1.81344C7.51492 0.809788 8.48331 0.156677 9.54854 0.195554L9.55692 0.19586L9.5653 0.195435C10.637 0.141075 11.6114 0.801099 11.9608 1.81051L12.0056 1.93992H12.1426H13.8574C13.9914 1.93992 14.1214 1.97144 14.2109 2.02548C14.2951 2.07626 14.3318 2.13695 14.3318 2.21302V3.20253ZM5.81132 2.71672H5.61901V2.90903V5.23188V5.42419H5.81132H13.3669H13.5592V5.23188V2.90903V2.71672H13.3669H11.7182C11.5157 2.69945 11.3519 2.54803 11.3173 2.3515L11.3174 2.35148L11.316 2.34477C11.1382 1.51224 10.4175 0.907929 9.56503 0.88451L9.56504 0.884221L9.5545 0.884509C8.69983 0.907861 7.96637 1.50567 7.77481 2.34199L7.77462 2.34194L7.77306 2.35052C7.73815 2.5425 7.58684 2.68947 7.39634 2.71672H5.81132ZM0.969857 5.53787L0.969116 5.54629V5.55474V22.2004C0.969116 22.5904 1.16727 22.9044 1.44592 23.1149C1.72206 23.3235 2.08328 23.4368 2.44025 23.4368H16.7338C17.0926 23.4368 17.454 23.3236 17.7298 23.1148C18.0082 22.904 18.2049 22.5899 18.2049 22.2004V5.55474V5.54629L18.2041 5.53787C18.1368 4.77252 17.5015 4.1861 16.7374 4.17168V4.17165H16.7338H14.5241H14.3318V4.36396V5.83082C14.2978 6.0542 14.0967 6.21706 13.8672 6.20544L13.8672 6.20519H13.8574H5.28721V6.20493L5.27724 6.20545C5.05937 6.21677 4.86602 6.05394 4.84221 5.83462V4.36396V4.17165H4.6499H2.44025V4.17162L2.43662 4.17168C1.67248 4.1861 1.03725 4.77252 0.969857 5.53787Z" fill="white" stroke="white" stroke-width="0.38462"/>
    <path d="M7.20857 13.1254L7.22353 13.1412L7.22908 13.1449L7.22968 13.1456C7.23264 13.1489 7.23674 13.1534 7.24166 13.1585C7.37527 13.3083 7.364 13.5327 7.21908 13.6642L7.21905 13.6642L7.21586 13.6672L4.95171 15.8182L4.95158 15.818L4.94564 15.8242C4.87383 15.8988 4.78023 15.9385 4.67226 15.9415C4.57375 15.9441 4.48135 15.9047 4.41419 15.8295L4.41434 15.8294L4.40837 15.8233L3.2184 14.604C3.21828 14.6039 3.21816 14.6037 3.21804 14.6036C3.06527 14.4448 3.06395 14.1932 3.21409 14.0327C3.37189 13.8934 3.60945 13.9037 3.75364 14.0562L3.75364 14.0562L3.75493 14.0575L4.53899 14.8709L4.67183 15.0087L4.81026 14.8766L6.6659 13.1047C6.82368 12.9625 7.06343 12.9718 7.20857 13.1254Z" fill="white" stroke="white" stroke-width="0.38462"/>
    <path d="M9.00468 14.435H15.6881C15.8988 14.435 16.0751 14.6074 16.0786 14.8267C16.078 15.0428 15.9043 15.216 15.6881 15.216H9.00468C8.78804 15.216 8.61418 15.0421 8.61418 14.8255C8.61418 14.6088 8.78804 14.435 9.00468 14.435Z" fill="white" stroke="white" stroke-width="0.38462"/>
    <path d="M7.20857 8.47545L7.20852 8.4755L7.21233 8.47932L7.2291 8.49609L7.24224 8.50923C7.37523 8.65905 7.36379 8.88302 7.21908 9.01433L7.21905 9.0143L7.21586 9.01733L4.95171 11.1683L4.95158 11.1681L4.94564 11.1743C4.87383 11.2489 4.78023 11.2886 4.67226 11.2916C4.57374 11.2942 4.48135 11.2548 4.41419 11.1796L4.41434 11.1795L4.40837 11.1734L3.2184 9.95408C3.21828 9.95395 3.21816 9.95383 3.21804 9.9537C3.06527 9.79488 3.06395 9.54325 3.21409 9.38283C3.37189 9.24351 3.60945 9.25376 3.75364 9.40627L3.75364 9.40628L3.75493 9.40761L4.53899 10.221L4.67183 10.3588L4.81026 10.2267L6.6659 8.45479C6.82368 8.31256 7.06343 8.32193 7.20857 8.47545Z" fill="white" stroke="white" stroke-width="0.38462"/>
    <path d="M9.00468 9.78508H15.6881C15.9015 9.78508 16.0786 9.95984 16.0786 10.1756C16.0786 10.3922 15.9048 10.5661 15.6881 10.5661H9.00468C8.78804 10.5661 8.61418 10.3922 8.61418 10.1756C8.61418 9.95894 8.78804 9.78508 9.00468 9.78508Z" fill="white" stroke="white" stroke-width="0.38462"/>
    <path d="M7.20857 17.7709L7.20852 17.7709L7.21233 17.7747L7.2291 17.7915L7.24224 17.8046C7.37523 17.9545 7.36379 18.1784 7.21908 18.3097L7.21905 18.3097L7.21586 18.3127L4.95171 20.4637L4.95158 20.4635L4.94564 20.4697C4.87383 20.5443 4.78023 20.584 4.67226 20.587C4.57374 20.5896 4.48135 20.5502 4.41419 20.475L4.41434 20.4749L4.40837 20.4688L3.2184 19.2495C3.21828 19.2494 3.21816 19.2492 3.21804 19.2491C3.06527 19.0903 3.06395 18.8387 3.21409 18.6782C3.37189 18.5389 3.60945 18.5492 3.75364 18.7017L3.75364 18.7017L3.75493 18.703L4.53899 19.5164L4.67183 19.6542L4.81026 19.5221L6.6659 17.7502C6.82368 17.608 7.06343 17.6173 7.20857 17.7709Z" fill="white" stroke="white" stroke-width="0.38462"/>
    <path d="M9.00468 19.0805H15.6881C15.8988 19.0805 16.0751 19.2529 16.0786 19.4722C16.078 19.6883 15.9043 19.8615 15.6881 19.8615H9.00468C8.78804 19.8615 8.61418 19.6876 8.61418 19.471C8.61418 19.2544 8.78804 19.0805 9.00468 19.0805Z" fill="white" stroke="white" stroke-width="0.38462"/>
</svg>
