<svg width="20" height="24" viewBox="0 0 20 24" fill="none" xmlns="http://www.w3.org/2000/svg">
    <path d="M9.48462 0.301367L9.4852 0.300795C9.63263 0.156148 9.86506 0.156148 10.0125 0.300796L10.0131 0.301366C12.3682 2.59247 15.1942 3.65562 18.8809 3.65562C19.0892 3.65562 19.2588 3.82529 19.2588 4.03354C19.2588 4.44906 19.2654 4.87396 19.2722 5.31373C19.2748 5.48329 19.2775 5.65507 19.2798 5.82937V5.87841H19.2798L19.2798 5.88209C19.3366 8.84197 19.4008 12.3053 18.2424 15.4519C17.0896 18.5831 14.7203 21.4134 9.8704 23.0929L9.87024 23.0924L9.85758 23.0979C9.83042 23.1095 9.7955 23.1159 9.74885 23.1159C9.71185 23.1159 9.6702 23.1085 9.62199 23.0925C4.77496 21.413 2.40693 18.5828 1.25479 15.4519C0.096873 12.3053 0.161128 8.84196 0.217847 5.88209C0.218563 5.84531 0.219281 5.80858 0.219997 5.77196C0.231813 5.16743 0.243039 4.59312 0.243039 4.03354C0.243039 3.82529 0.412704 3.65562 0.62096 3.65562C4.30348 3.65562 7.12954 2.59245 9.48462 0.301367ZM9.45178 1.36342L9.45072 1.36434C7.2312 3.29507 4.69136 4.26232 1.43051 4.39905L1.43051 4.39905L1.4288 4.39913L1.18142 4.41171L1.00195 4.42084L0.998908 4.60051L0.994714 4.84789L0.994703 4.84875C0.992795 5.00139 0.989825 5.16511 0.986799 5.33195C0.983463 5.51588 0.980058 5.70362 0.97793 5.88453L0.977704 5.89601C0.919214 8.94572 0.856079 12.2377 1.9139 15.1644C2.97927 18.1121 5.17498 20.6754 9.59365 22.2808C9.59414 22.281 9.59464 22.2812 9.59514 22.2814L9.68038 22.3139L9.74885 22.34L9.81731 22.3139L9.90252 22.2814C9.90301 22.2812 9.90349 22.281 9.90397 22.2809C14.3247 20.6754 16.5215 18.1122 17.5874 15.1666C18.6459 12.2416 18.5827 8.95358 18.5242 5.91199L18.5239 5.89987L18.5239 5.89909C18.5157 5.54394 18.5115 5.2009 18.5073 4.86085L18.5072 4.84881L18.5072 4.84789L18.503 4.60051L18.4999 4.42084L18.3205 4.41171L18.0731 4.39913L18.0714 4.39905C14.8105 4.26232 12.2667 3.29507 10.0515 1.36464C10.0514 1.36458 10.0514 1.36452 10.0513 1.36446L9.87992 1.21398L9.75456 1.1039L9.62788 1.21248L9.45178 1.36342Z" fill="white" stroke="white" stroke-width="0.38462"/>
    <path d="M8.33207 14.236L8.3321 14.236L8.32943 14.2333L6.02335 11.9272C5.87693 11.7808 5.87512 11.541 6.02462 11.3887C6.169 11.2416 6.4073 11.2401 6.5613 11.3907L8.46417 13.2935L8.60009 13.4295L8.73607 13.2936L12.9499 9.08397L12.95 9.0839C13.0962 8.93768 13.3355 8.93567 13.4879 9.08453C13.6335 9.2308 13.6353 9.46962 13.4866 9.62176L8.86268 14.2331L8.86265 14.2331L8.85986 14.236C8.79349 14.305 8.69785 14.3447 8.59597 14.3447C8.49408 14.3447 8.39844 14.305 8.33207 14.236Z" fill="white" stroke="white" stroke-width="0.38462"/>
</svg>
