<svg width="25" height="25" viewBox="0 0 25 25" fill="none" xmlns="http://www.w3.org/2000/svg">
    <path d="M4.89049 3.37009L4.86053 3.58854H5.08102H5.95631C6.26892 3.58854 6.52032 3.84027 6.52032 4.14256V6.43606C6.52032 6.73835 6.26892 6.99008 5.95631 6.99008H3.35593C3.04332 6.99008 2.79192 6.73835 2.79192 6.43606V3.96646C2.79192 2.44291 3.23203 1.52982 3.82492 0.984882C4.42097 0.437051 5.20127 0.233581 5.93616 0.19231H5.9362H5.93625H5.9363H5.93635H5.93639H5.93644H5.93649H5.93654H5.93659H5.93664H5.93669H5.93674H5.93679H5.93684H5.93689H5.93694H5.93699H5.93704H5.93709H5.93714H5.93719H5.93724H5.93729H5.93734H5.93739H5.93744H5.93749H5.93754H5.93759H5.93764H5.93769H5.93774H5.93779H5.93784H5.93789H5.93794H5.93799H5.93804H5.93809H5.93814H5.93819H5.93824H5.93829H5.93834H5.93839H5.93844H5.93849H5.93854H5.93859H5.93864H5.93869H5.93874H5.93878H5.93883H5.93888H5.93893H5.93898H5.93903H5.93908H5.93913H5.93918H5.93923H5.93928H5.93933H5.93938H5.93943H5.93948H5.93953H5.93958H5.93963H5.93968H5.93973H5.93978H5.93983H5.93988H5.93993H5.93998H5.94003H5.94008H5.94013H5.94018H5.94023H5.94028H5.94033H5.94038H5.94043H5.94048H5.94053H5.94058H5.94063H5.94068H5.94073H5.94078H5.94083H5.94088H5.94093H5.94098H5.94103H5.94108H5.94113H5.94117H5.94122H5.94127H5.94132H5.94137H5.94142H5.94147H5.94152H5.94157H5.94162H5.94167H5.94172H5.94177H5.94182H5.94187H5.94192H5.94197H5.94202H5.94207H5.94212H5.94217H5.94222H5.94227H5.94232H5.94237H5.94242H5.94247H5.94252H5.94257H5.94262H5.94267H5.94272H5.94277H5.94282H5.94287H5.94292H5.94297H5.94302H5.94307H5.94312H5.94317H5.94322H5.94327H5.94332H5.94337H5.94342H5.94347H5.94352H5.94357H5.94361H5.94366H5.94371H5.94376H5.94381H5.94386H5.94391H5.94396H5.94401H5.94406H5.94411H5.94416H5.94421H5.94426H5.94431H5.94436H5.94441H5.94446H5.94451H5.94456H5.94461H5.94466H5.94471H5.94476H5.94481H5.94486H5.94491H5.94496H5.94501H5.94506H5.94511H5.94516H5.94521H5.94526H5.94531H5.94536H5.94541H5.94546H5.94551H5.94556H5.94561H5.94566H5.94571H5.94576H5.94581H5.94586H5.94591H5.94596H5.946H5.94605H5.9461H5.94615H5.9462H5.94625H5.9463H5.94635H5.9464H5.94645H5.9465H5.94655H5.9466H5.94665H5.9467H5.94675H5.9468H5.94685H5.9469H5.94695H5.947H5.94705H5.9471H5.94715H5.9472H5.94725H5.9473H5.94735H5.9474H5.94745H5.9475H5.94755H5.9476H5.94765H5.9477H5.94775H5.9478H5.94785H5.9479H5.94795H5.948H5.94805H5.9481H5.94815H5.9482H5.94825H5.9483H5.94835H5.9484H5.94844H5.94849H5.94854H5.94859H5.94864H5.94869H5.94874H5.94879H5.94884H5.94889H5.94894H5.94899H5.94904H5.94909H5.94914H5.94919H5.94924H5.94929H5.94934H5.94939H5.94944H5.94949H5.94954H5.94959H5.94964H5.94969H5.94974H5.94979H5.94984H5.94989H5.94994H5.94999H5.95004H5.95009H5.95014H5.95019H5.95024H5.95029H5.95034H5.95039H5.95044H5.95049H5.95054H5.95059H5.95064H5.95069H5.95074H5.95079H5.95083H5.95088H5.95093H5.95098H5.95103H5.95108H5.95113H5.95118H5.95123H5.95128H5.95133H5.95138H5.95143H5.95148H5.95153H5.95158H5.95163H5.95168H5.95173H5.95178H5.95183H5.95188H5.95193H5.95198H5.95203H5.95208H5.95213H5.95218H5.95223H5.95228H5.95233H5.95238H5.95243H5.95248H5.95253H5.95258H5.95263H5.95268H5.95273H5.95278H5.95283H5.95288H5.95293H5.95298H5.95303H5.95308H5.95313H5.95318H5.95322H5.95327H5.95332H5.95337H5.95342H5.95347H5.95352H5.95357H5.95362H5.95367H5.95372H5.95377H5.95382H5.95387H5.95392H5.95397H5.95402H5.95407H5.95412H5.95417H5.95422H5.95427H5.95432H5.95437H5.95442H5.95447H5.95452H5.95457H5.95462H5.95467H5.95472H5.95477H5.95482H5.95487H5.95492H5.95497H5.95502H5.95507H5.95512H5.95517H5.95522H5.95527H5.95532H5.95537H5.95542H5.95547H5.95552H5.95557H5.95562H5.95566H5.95571H5.95576H5.95581H5.95586H5.95591H5.95596H5.95601H5.95606H5.95611H5.95616H5.95621H5.95626H5.95631C6.11596 0.19231 6.24414 0.322449 6.24414 0.473795V1.89099C6.24414 2.03711 6.13078 2.16055 5.9825 2.17316L5.97966 2.1734C5.85394 2.18409 5.61004 2.20482 5.38227 2.37388C5.14728 2.5483 4.96121 2.85463 4.89049 3.37009ZM5.75236 6.42711H5.94467V6.2348V4.34382V4.15151H5.75236H4.57114C4.41149 4.15151 4.28331 4.02137 4.28331 3.87002C4.28331 3.09896 4.46202 2.59846 4.69874 2.27161C4.9351 1.94527 5.2423 1.77406 5.53264 1.68488L5.66849 1.64316V1.50105V1.00629V0.775388L5.44139 0.817151C4.94582 0.908289 4.41841 1.12015 4.01807 1.61426C3.61905 2.10673 3.36757 2.85333 3.36757 3.97065V6.2348V6.42711H3.55988H5.75236Z" fill="white" stroke="white" stroke-width="0.38462"/>
    <path d="M9.80065 3.37009L9.77068 3.58854H9.99118H10.8665C11.1791 3.58854 11.4305 3.84027 11.4305 4.14256V6.44025C11.4305 6.74254 11.1791 6.99427 10.8665 6.99427H8.26609C7.95348 6.99427 7.70208 6.74254 7.70208 6.44025V3.97065C7.70208 2.44493 8.14223 1.53078 8.73514 0.985348C9.33117 0.437046 10.1114 0.233581 10.8463 0.19231H10.8464H10.8464H10.8465H10.8465H10.8466H10.8466H10.8467H10.8467H10.8468H10.8468H10.8468H10.8469H10.8469H10.847H10.847H10.8471H10.8471H10.8472H10.8472H10.8473H10.8473H10.8474H10.8474H10.8475H10.8475H10.8476H10.8476H10.8477H10.8477H10.8478H10.8478H10.8479H10.8479H10.848H10.848H10.8481H10.8481H10.8482H10.8482H10.8483H10.8483H10.8484H10.8484H10.8485H10.8485H10.8486H10.8486H10.8487H10.8487H10.8488H10.8488H10.8489H10.8489H10.849H10.849H10.8491H10.8491H10.8492H10.8492H10.8493H10.8493H10.8494H10.8494H10.8495H10.8495H10.8496H10.8496H10.8497H10.8497H10.8498H10.8498H10.8499H10.8499H10.85H10.85H10.8501H10.8501H10.8502H10.8502H10.8503H10.8503H10.8504H10.8504H10.8505H10.8505H10.8506H10.8506H10.8507H10.8507H10.8508H10.8508H10.8509H10.8509H10.851H10.851H10.8511H10.8511H10.8512H10.8512H10.8513H10.8513H10.8514H10.8514H10.8515H10.8515H10.8516H10.8516H10.8517H10.8517H10.8518H10.8518H10.8519H10.8519H10.852H10.852H10.8521H10.8521H10.8522H10.8522H10.8523H10.8523H10.8524H10.8524H10.8525H10.8525H10.8526H10.8526H10.8527H10.8527H10.8528H10.8528H10.8529H10.8529H10.853H10.853H10.8531H10.8531H10.8532H10.8532H10.8533H10.8533H10.8534H10.8534H10.8535H10.8535H10.8536H10.8536H10.8537H10.8537H10.8538H10.8538H10.8539H10.8539H10.854H10.854H10.8541H10.8541H10.8542H10.8542H10.8543H10.8543H10.8544H10.8544H10.8545H10.8545H10.8546H10.8546H10.8547H10.8547H10.8548H10.8548H10.8549H10.8549H10.855H10.855H10.8551H10.8551H10.8552H10.8552H10.8553H10.8553H10.8554H10.8554H10.8555H10.8555H10.8556H10.8556H10.8557H10.8557H10.8558H10.8558H10.8559H10.8559H10.856H10.856H10.8561H10.8561H10.8562H10.8562H10.8563H10.8563H10.8564H10.8564H10.8565H10.8565H10.8566H10.8566H10.8567H10.8567H10.8568H10.8568H10.8569H10.8569H10.857H10.857H10.8571H10.8571H10.8572H10.8572H10.8573H10.8573H10.8574H10.8574H10.8575H10.8575H10.8576H10.8576H10.8577H10.8577H10.8578H10.8578H10.8579H10.8579H10.858H10.858H10.8581H10.8581H10.8582H10.8582H10.8583H10.8583H10.8584H10.8584H10.8585H10.8585H10.8586H10.8586H10.8587H10.8587H10.8588H10.8588H10.8589H10.8589H10.8589H10.859H10.859H10.8591H10.8591H10.8592H10.8592H10.8593H10.8593H10.8594H10.8594H10.8595H10.8595H10.8596H10.8596H10.8597H10.8597H10.8598H10.8598H10.8599H10.8599H10.86H10.86H10.8601H10.8601H10.8602H10.8602H10.8603H10.8603H10.8604H10.8604H10.8605H10.8605H10.8606H10.8606H10.8607H10.8607H10.8608H10.8608H10.8609H10.8609H10.861H10.861H10.8611H10.8611H10.8612H10.8612H10.8613H10.8613H10.8614H10.8614H10.8615H10.8615H10.8616H10.8616H10.8617H10.8617H10.8618H10.8618H10.8619H10.8619H10.862H10.862H10.8621H10.8621H10.8622H10.8622H10.8623H10.8623H10.8624H10.8624H10.8625H10.8625H10.8626H10.8626H10.8627H10.8627H10.8628H10.8628H10.8629H10.8629H10.863H10.863H10.8631H10.8631H10.8632H10.8632H10.8633H10.8633H10.8634H10.8634H10.8635H10.8635H10.8636H10.8636H10.8637H10.8637H10.8638H10.8638H10.8639H10.8639H10.864H10.864H10.8641H10.8641H10.8642H10.8642H10.8643H10.8643H10.8644H10.8644H10.8645H10.8645H10.8646H10.8646H10.8647H10.8647H10.8648H10.8648H10.8649H10.8649H10.865H10.865H10.8651H10.8651H10.8652H10.8652H10.8653H10.8653H10.8654H10.8654H10.8655H10.8655H10.8656H10.8656H10.8657H10.8657H10.8658H10.8658H10.8659H10.8659H10.866H10.866H10.8661H10.8661H10.8662H10.8662H10.8663H10.8663H10.8664H10.8664H10.8665C11.0261 0.19231 11.1543 0.322449 11.1543 0.473795V1.89099C11.1543 2.03711 11.0409 2.16055 10.8927 2.17316L10.8898 2.1734C10.7641 2.18409 10.5202 2.20482 10.2924 2.37388C10.0574 2.5483 9.87136 2.85463 9.80065 3.37009ZM10.6625 6.42711H10.8544L10.8548 6.23523L10.8591 4.34425L10.8595 4.15151H10.6668H9.48555C9.3259 4.15151 9.19772 4.02137 9.19772 3.87002C9.19772 3.09872 9.37548 2.59822 9.61166 2.27146C9.84739 1.94533 10.1544 1.77418 10.4467 1.68499L10.5829 1.64343V1.50105V1.00629V0.775389L10.3558 0.817151C9.86022 0.908289 9.33282 1.12015 8.93247 1.61426C8.53346 2.10673 8.28198 2.85333 8.28198 3.97065V6.2348V6.42711H8.47429H10.6625Z" fill="white" stroke="white" stroke-width="0.38462"/>
    <path d="M13.1581 3.96714C13.2696 3.85708 13.454 3.85656 13.5662 3.9656C13.622 4.02411 13.6508 4.09786 13.6508 4.16569C13.6508 4.23997 13.6204 4.31228 13.5678 4.36423C13.4557 4.47482 13.2702 4.47482 13.1581 4.36423C13.0475 4.25505 13.0475 4.07633 13.1581 3.96714Z" fill="white" stroke="white" stroke-width="0.38462"/>
    <path d="M16.0662 3.88421L16.066 3.88421L15.4626 3.88421C15.303 3.88421 15.1748 4.01435 15.1748 4.16569C15.1748 4.31704 15.303 4.44718 15.4626 4.44718H16.066C20.355 4.44718 23.8385 7.88098 23.8385 12.1196C23.8385 15.747 21.2617 18.8766 17.6689 19.6244C17.5345 19.6524 17.4395 19.7688 17.4395 19.9015V22.6563V23.1162L17.1121 22.7931L14.1506 19.8707C14.0978 19.8187 14.0233 19.7878 13.9457 19.7878H8.54526C4.25621 19.7878 0.77275 16.354 0.77275 12.1154C0.77275 10.8125 1.1081 9.53557 1.74805 8.39635C1.81935 8.26085 1.767 8.09018 1.62897 8.01795C1.48726 7.94579 1.32027 7.99357 1.24195 8.12374C-0.993411 12.1002 0.458321 17.109 4.49063 19.3178L4.49064 19.3178C5.73275 19.9983 7.12439 20.3549 8.54526 20.3549H13.7503H13.8292L13.8854 20.4104L17.5225 24.0037L16.0662 3.88421ZM16.0662 3.88421C19.8808 3.88011 23.2107 6.42218 24.1612 10.0675L24.1612 10.0675C25.3107 14.4696 22.6264 18.9611 18.1601 20.0967L18.0152 20.1336M16.0662 3.88421L18.0152 20.1336M18.0152 20.1336V20.2831M18.0152 20.1336V20.2831M18.0152 20.2831V23.8051C18.0152 23.8794 17.9848 23.9517 17.9322 24.0037C17.8201 24.1142 17.6346 24.1142 17.5226 24.0037L18.0152 20.2831Z" fill="white" stroke="white" stroke-width="0.38462"/>
    <path d="M6.39225 8.60881H18.2172C18.3822 8.60881 18.5093 8.74005 18.5093 8.8903C18.5093 9.04474 18.3822 9.17178 18.2214 9.17178H6.39649H6.39647H6.39644H6.39642H6.3964H6.39637H6.39635H6.39632H6.3963H6.39627H6.39625H6.39623H6.3962H6.39618H6.39616H6.39613H6.39611H6.39608H6.39606H6.39604H6.39602H6.39599H6.39597H6.39595H6.39592H6.3959H6.39588H6.39586H6.39583H6.39581H6.39579H6.39577H6.39575H6.39572H6.3957H6.39568H6.39566H6.39564H6.39562H6.3956H6.39557H6.39555H6.39553H6.39551H6.39549H6.39547H6.39545H6.39543H6.39541H6.39539H6.39537H6.39535H6.39533H6.39531H6.39529H6.39527H6.39525H6.39523H6.39521H6.39519H6.39517H6.39515H6.39513H6.39511H6.39509H6.39507H6.39505H6.39503H6.39502H6.395H6.39498H6.39496H6.39494H6.39492H6.39491H6.39489H6.39487H6.39485H6.39483H6.39482H6.3948H6.39478H6.39476H6.39474H6.39473H6.39471H6.39469H6.39468H6.39466H6.39464H6.39462H6.39461H6.39459H6.39457H6.39456H6.39454H6.39452H6.39451H6.39449H6.39448H6.39446H6.39444H6.39443H6.39441H6.3944H6.39438H6.39436H6.39435H6.39433H6.39432H6.3943H6.39429H6.39427H6.39426H6.39424H6.39423H6.39421H6.3942H6.39418H6.39417H6.39415H6.39414H6.39412H6.39411H6.39409H6.39408H6.39407H6.39405H6.39404H6.39402H6.39401H6.394H6.39398H6.39397H6.39396H6.39394H6.39393H6.39391H6.3939H6.39389H6.39388H6.39386H6.39385H6.39384H6.39382H6.39381H6.3938H6.39378H6.39377H6.39376H6.39375H6.39373H6.39372H6.39371H6.3937H6.39369H6.39367H6.39366H6.39365H6.39364H6.39363H6.39361H6.3936H6.39359H6.39358H6.39357H6.39356H6.39355H6.39353H6.39352H6.39351H6.3935H6.39349H6.39348H6.39347H6.39346H6.39345H6.39344H6.39342H6.39341H6.3934H6.39339H6.39338H6.39337H6.39336H6.39335H6.39334H6.39333H6.39332H6.39331H6.3933H6.39329H6.39328H6.39327H6.39326H6.39325H6.39324H6.39323H6.39323H6.39322H6.39321H6.3932H6.39319H6.39318H6.39317H6.39316H6.39315H6.39314H6.39313H6.39313H6.39312H6.39311H6.3931H6.39309H6.39308H6.39307H6.39307H6.39306H6.39305H6.39304H6.39303H6.39303H6.39302H6.39301H6.393H6.39299H6.39299H6.39298H6.39297H6.39296H6.39296H6.39295H6.39294H6.39293H6.39293H6.39292H6.39291H6.3929H6.3929H6.39289H6.39288H6.39288H6.39287H6.39286H6.39285H6.39285H6.39284H6.39283H6.39283H6.39282H6.39281H6.39281H6.3928H6.3928H6.39279H6.39278H6.39278H6.39277H6.39276H6.39276H6.39275H6.39275H6.39274H6.39273H6.39273H6.39272H6.39272H6.39271H6.39271H6.3927H6.39269H6.39269H6.39268H6.39268H6.39267H6.39267H6.39266H6.39266H6.39265H6.39265H6.39264H6.39264H6.39263H6.39263H6.39262H6.39262H6.39261H6.39261H6.3926H6.3926H6.39259H6.39259H6.39258H6.39258H6.39257H6.39257H6.39256H6.39256H6.39256H6.39255H6.39255H6.39254H6.39254H6.39253H6.39253H6.39253H6.39252H6.39252H6.39251H6.39251H6.39251H6.3925H6.3925H6.39249H6.39249H6.39249H6.39248H6.39248H6.39248H6.39247H6.39247H6.39247H6.39246H6.39246H6.39246H6.39245H6.39245H6.39245H6.39244H6.39244H6.39244H6.39243H6.39243H6.39243H6.39242H6.39242H6.39242H6.39241H6.39241H6.39241H6.39241H6.3924H6.3924H6.3924H6.3924H6.39239H6.39239H6.39239H6.39238H6.39238H6.39238H6.39238H6.39237H6.39237H6.39237H6.39237H6.39237H6.39236H6.39236H6.39236H6.39236H6.39235H6.39235H6.39235H6.39235H6.39235H6.39234H6.39234H6.39234H6.39234H6.39234H6.39233H6.39233H6.39233H6.39233H6.39233H6.39232H6.39232H6.39232H6.39232H6.39232H6.39232H6.39231H6.39231H6.39231H6.39231H6.39231H6.39231H6.39231H6.3923H6.3923H6.3923H6.3923H6.3923H6.3923H6.3923H6.39229H6.39229H6.39229H6.39229H6.39229H6.39229H6.39229H6.39229H6.39229H6.39228H6.39228H6.39228H6.39228H6.39228H6.39228H6.39228H6.39228H6.39228H6.39228H6.39227H6.39227H6.39227H6.39227H6.39227H6.39227H6.39227H6.39227H6.39227H6.39227H6.39227H6.39227H6.39226H6.39226H6.39226H6.39226H6.39226H6.39226H6.39226H6.39226H6.39226H6.39226H6.39226H6.39226H6.39226H6.39226H6.39226H6.39226H6.39226H6.39226H6.39225H6.39225H6.39225H6.39225H6.39225H6.39225H6.39225H6.39225H6.39225H6.39225H6.39225H6.39225H6.39225H6.39225H6.39225H6.39225H6.39225C6.22835 9.17178 6.10442 9.04584 6.10442 8.8903C6.10442 8.73586 6.23148 8.60881 6.39225 8.60881Z" fill="white" stroke="white" stroke-width="0.38462"/>
    <path d="M6.39225 11.1371H18.2172C18.3822 11.1371 18.5093 11.2684 18.5093 11.4186C18.5093 11.5731 18.3822 11.7001 18.2214 11.7001H6.39649H6.39647H6.39644H6.39642H6.3964H6.39637H6.39635H6.39632H6.3963H6.39627H6.39625H6.39623H6.3962H6.39618H6.39616H6.39613H6.39611H6.39608H6.39606H6.39604H6.39602H6.39599H6.39597H6.39595H6.39592H6.3959H6.39588H6.39586H6.39583H6.39581H6.39579H6.39577H6.39575H6.39572H6.3957H6.39568H6.39566H6.39564H6.39562H6.3956H6.39557H6.39555H6.39553H6.39551H6.39549H6.39547H6.39545H6.39543H6.39541H6.39539H6.39537H6.39535H6.39533H6.39531H6.39529H6.39527H6.39525H6.39523H6.39521H6.39519H6.39517H6.39515H6.39513H6.39511H6.39509H6.39507H6.39505H6.39503H6.39502H6.395H6.39498H6.39496H6.39494H6.39492H6.39491H6.39489H6.39487H6.39485H6.39483H6.39482H6.3948H6.39478H6.39476H6.39474H6.39473H6.39471H6.39469H6.39468H6.39466H6.39464H6.39462H6.39461H6.39459H6.39457H6.39456H6.39454H6.39452H6.39451H6.39449H6.39448H6.39446H6.39444H6.39443H6.39441H6.3944H6.39438H6.39436H6.39435H6.39433H6.39432H6.3943H6.39429H6.39427H6.39426H6.39424H6.39423H6.39421H6.3942H6.39418H6.39417H6.39415H6.39414H6.39412H6.39411H6.39409H6.39408H6.39407H6.39405H6.39404H6.39402H6.39401H6.394H6.39398H6.39397H6.39396H6.39394H6.39393H6.39391H6.3939H6.39389H6.39388H6.39386H6.39385H6.39384H6.39382H6.39381H6.3938H6.39378H6.39377H6.39376H6.39375H6.39373H6.39372H6.39371H6.3937H6.39369H6.39367H6.39366H6.39365H6.39364H6.39363H6.39361H6.3936H6.39359H6.39358H6.39357H6.39356H6.39355H6.39353H6.39352H6.39351H6.3935H6.39349H6.39348H6.39347H6.39346H6.39345H6.39344H6.39342H6.39341H6.3934H6.39339H6.39338H6.39337H6.39336H6.39335H6.39334H6.39333H6.39332H6.39331H6.3933H6.39329H6.39328H6.39327H6.39326H6.39325H6.39324H6.39323H6.39323H6.39322H6.39321H6.3932H6.39319H6.39318H6.39317H6.39316H6.39315H6.39314H6.39313H6.39313H6.39312H6.39311H6.3931H6.39309H6.39308H6.39307H6.39307H6.39306H6.39305H6.39304H6.39303H6.39303H6.39302H6.39301H6.393H6.39299H6.39299H6.39298H6.39297H6.39296H6.39296H6.39295H6.39294H6.39293H6.39293H6.39292H6.39291H6.3929H6.3929H6.39289H6.39288H6.39288H6.39287H6.39286H6.39285H6.39285H6.39284H6.39283H6.39283H6.39282H6.39281H6.39281H6.3928H6.3928H6.39279H6.39278H6.39278H6.39277H6.39276H6.39276H6.39275H6.39275H6.39274H6.39273H6.39273H6.39272H6.39272H6.39271H6.39271H6.3927H6.39269H6.39269H6.39268H6.39268H6.39267H6.39267H6.39266H6.39266H6.39265H6.39265H6.39264H6.39264H6.39263H6.39263H6.39262H6.39262H6.39261H6.39261H6.3926H6.3926H6.39259H6.39259H6.39258H6.39258H6.39257H6.39257H6.39256H6.39256H6.39256H6.39255H6.39255H6.39254H6.39254H6.39253H6.39253H6.39253H6.39252H6.39252H6.39251H6.39251H6.39251H6.3925H6.3925H6.39249H6.39249H6.39249H6.39248H6.39248H6.39248H6.39247H6.39247H6.39247H6.39246H6.39246H6.39246H6.39245H6.39245H6.39245H6.39244H6.39244H6.39244H6.39243H6.39243H6.39243H6.39242H6.39242H6.39242H6.39241H6.39241H6.39241H6.39241H6.3924H6.3924H6.3924H6.3924H6.39239H6.39239H6.39239H6.39238H6.39238H6.39238H6.39238H6.39237H6.39237H6.39237H6.39237H6.39237H6.39236H6.39236H6.39236H6.39236H6.39235H6.39235H6.39235H6.39235H6.39235H6.39234H6.39234H6.39234H6.39234H6.39234H6.39233H6.39233H6.39233H6.39233H6.39233H6.39232H6.39232H6.39232H6.39232H6.39232H6.39232H6.39231H6.39231H6.39231H6.39231H6.39231H6.39231H6.39231H6.3923H6.3923H6.3923H6.3923H6.3923H6.3923H6.3923H6.39229H6.39229H6.39229H6.39229H6.39229H6.39229H6.39229H6.39229H6.39229H6.39228H6.39228H6.39228H6.39228H6.39228H6.39228H6.39228H6.39228H6.39228H6.39228H6.39227H6.39227H6.39227H6.39227H6.39227H6.39227H6.39227H6.39227H6.39227H6.39227H6.39227H6.39227H6.39226H6.39226H6.39226H6.39226H6.39226H6.39226H6.39226H6.39226H6.39226H6.39226H6.39226H6.39226H6.39226H6.39226H6.39226H6.39226H6.39226H6.39226H6.39225H6.39225H6.39225H6.39225H6.39225H6.39225H6.39225H6.39225H6.39225H6.39225H6.39225H6.39225H6.39225H6.39225H6.39225H6.39225H6.39225C6.22835 11.7001 6.10442 11.5742 6.10442 11.4186C6.10442 11.2642 6.23148 11.1371 6.39225 11.1371Z" fill="white" stroke="white" stroke-width="0.38462"/>
    <path d="M6.39225 13.6659H18.2172C18.3822 13.6659 18.5093 13.7972 18.5093 13.9474C18.5093 14.1019 18.3822 14.2289 18.2214 14.2289H6.39649H6.39647H6.39644H6.39642H6.3964H6.39637H6.39635H6.39632H6.3963H6.39627H6.39625H6.39623H6.3962H6.39618H6.39616H6.39613H6.39611H6.39608H6.39606H6.39604H6.39602H6.39599H6.39597H6.39595H6.39592H6.3959H6.39588H6.39586H6.39583H6.39581H6.39579H6.39577H6.39575H6.39572H6.3957H6.39568H6.39566H6.39564H6.39562H6.3956H6.39557H6.39555H6.39553H6.39551H6.39549H6.39547H6.39545H6.39543H6.39541H6.39539H6.39537H6.39535H6.39533H6.39531H6.39529H6.39527H6.39525H6.39523H6.39521H6.39519H6.39517H6.39515H6.39513H6.39511H6.39509H6.39507H6.39505H6.39503H6.39502H6.395H6.39498H6.39496H6.39494H6.39492H6.39491H6.39489H6.39487H6.39485H6.39483H6.39482H6.3948H6.39478H6.39476H6.39474H6.39473H6.39471H6.39469H6.39468H6.39466H6.39464H6.39462H6.39461H6.39459H6.39457H6.39456H6.39454H6.39452H6.39451H6.39449H6.39448H6.39446H6.39444H6.39443H6.39441H6.3944H6.39438H6.39436H6.39435H6.39433H6.39432H6.3943H6.39429H6.39427H6.39426H6.39424H6.39423H6.39421H6.3942H6.39418H6.39417H6.39415H6.39414H6.39412H6.39411H6.39409H6.39408H6.39407H6.39405H6.39404H6.39402H6.39401H6.394H6.39398H6.39397H6.39396H6.39394H6.39393H6.39391H6.3939H6.39389H6.39388H6.39386H6.39385H6.39384H6.39382H6.39381H6.3938H6.39378H6.39377H6.39376H6.39375H6.39373H6.39372H6.39371H6.3937H6.39369H6.39367H6.39366H6.39365H6.39364H6.39363H6.39361H6.3936H6.39359H6.39358H6.39357H6.39356H6.39355H6.39353H6.39352H6.39351H6.3935H6.39349H6.39348H6.39347H6.39346H6.39345H6.39344H6.39342H6.39341H6.3934H6.39339H6.39338H6.39337H6.39336H6.39335H6.39334H6.39333H6.39332H6.39331H6.3933H6.39329H6.39328H6.39327H6.39326H6.39325H6.39324H6.39323H6.39323H6.39322H6.39321H6.3932H6.39319H6.39318H6.39317H6.39316H6.39315H6.39314H6.39313H6.39313H6.39312H6.39311H6.3931H6.39309H6.39308H6.39307H6.39307H6.39306H6.39305H6.39304H6.39303H6.39303H6.39302H6.39301H6.393H6.39299H6.39299H6.39298H6.39297H6.39296H6.39296H6.39295H6.39294H6.39293H6.39293H6.39292H6.39291H6.3929H6.3929H6.39289H6.39288H6.39288H6.39287H6.39286H6.39285H6.39285H6.39284H6.39283H6.39283H6.39282H6.39281H6.39281H6.3928H6.3928H6.39279H6.39278H6.39278H6.39277H6.39276H6.39276H6.39275H6.39275H6.39274H6.39273H6.39273H6.39272H6.39272H6.39271H6.39271H6.3927H6.39269H6.39269H6.39268H6.39268H6.39267H6.39267H6.39266H6.39266H6.39265H6.39265H6.39264H6.39264H6.39263H6.39263H6.39262H6.39262H6.39261H6.39261H6.3926H6.3926H6.39259H6.39259H6.39258H6.39258H6.39257H6.39257H6.39256H6.39256H6.39256H6.39255H6.39255H6.39254H6.39254H6.39253H6.39253H6.39253H6.39252H6.39252H6.39251H6.39251H6.39251H6.3925H6.3925H6.39249H6.39249H6.39249H6.39248H6.39248H6.39248H6.39247H6.39247H6.39247H6.39246H6.39246H6.39246H6.39245H6.39245H6.39245H6.39244H6.39244H6.39244H6.39243H6.39243H6.39243H6.39242H6.39242H6.39242H6.39241H6.39241H6.39241H6.39241H6.3924H6.3924H6.3924H6.3924H6.39239H6.39239H6.39239H6.39238H6.39238H6.39238H6.39238H6.39237H6.39237H6.39237H6.39237H6.39237H6.39236H6.39236H6.39236H6.39236H6.39235H6.39235H6.39235H6.39235H6.39235H6.39234H6.39234H6.39234H6.39234H6.39234H6.39233H6.39233H6.39233H6.39233H6.39233H6.39232H6.39232H6.39232H6.39232H6.39232H6.39232H6.39231H6.39231H6.39231H6.39231H6.39231H6.39231H6.39231H6.3923H6.3923H6.3923H6.3923H6.3923H6.3923H6.3923H6.39229H6.39229H6.39229H6.39229H6.39229H6.39229H6.39229H6.39229H6.39229H6.39228H6.39228H6.39228H6.39228H6.39228H6.39228H6.39228H6.39228H6.39228H6.39228H6.39227H6.39227H6.39227H6.39227H6.39227H6.39227H6.39227H6.39227H6.39227H6.39227H6.39227H6.39227H6.39226H6.39226H6.39226H6.39226H6.39226H6.39226H6.39226H6.39226H6.39226H6.39226H6.39226H6.39226H6.39226H6.39226H6.39226H6.39226H6.39226H6.39226H6.39225H6.39225H6.39225H6.39225H6.39225H6.39225H6.39225H6.39225H6.39225H6.39225H6.39225H6.39225H6.39225H6.39225H6.39225H6.39225H6.39225C6.22946 14.2289 6.10442 14.0999 6.10442 13.9474C6.10442 13.793 6.23148 13.6659 6.39225 13.6659Z" fill="white" stroke="white" stroke-width="0.38462"/>
    <path d="M11.9147 16.1952H18.2202C18.3818 16.1952 18.5089 16.3235 18.5123 16.4783C18.5114 16.632 18.3847 16.7582 18.2245 16.7582H11.919H11.9189H11.9189H11.9189H11.9189H11.9188H11.9188H11.9188H11.9188H11.9187H11.9187H11.9187H11.9187H11.9186H11.9186H11.9186H11.9186H11.9185H11.9185H11.9185H11.9185H11.9185H11.9184H11.9184H11.9184H11.9184H11.9183H11.9183H11.9183H11.9183H11.9183H11.9182H11.9182H11.9182H11.9182H11.9181H11.9181H11.9181H11.9181H11.9181H11.918H11.918H11.918H11.918H11.918H11.9179H11.9179H11.9179H11.9179H11.9178H11.9178H11.9178H11.9178H11.9178H11.9177H11.9177H11.9177H11.9177H11.9177H11.9176H11.9176H11.9176H11.9176H11.9176H11.9176H11.9175H11.9175H11.9175H11.9175H11.9175H11.9174H11.9174H11.9174H11.9174H11.9174H11.9173H11.9173H11.9173H11.9173H11.9173H11.9173H11.9172H11.9172H11.9172H11.9172H11.9172H11.9172H11.9171H11.9171H11.9171H11.9171H11.9171H11.9171H11.917H11.917H11.917H11.917H11.917H11.917H11.9169H11.9169H11.9169H11.9169H11.9169H11.9169H11.9168H11.9168H11.9168H11.9168H11.9168H11.9168H11.9167H11.9167H11.9167H11.9167H11.9167H11.9167H11.9167H11.9166H11.9166H11.9166H11.9166H11.9166H11.9166H11.9166H11.9165H11.9165H11.9165H11.9165H11.9165H11.9165H11.9165H11.9164H11.9164H11.9164H11.9164H11.9164H11.9164H11.9164H11.9163H11.9163H11.9163H11.9163H11.9163H11.9163H11.9163H11.9163H11.9162H11.9162H11.9162H11.9162H11.9162H11.9162H11.9162H11.9162H11.9161H11.9161H11.9161H11.9161H11.9161H11.9161H11.9161H11.9161H11.9161H11.916H11.916H11.916H11.916H11.916H11.916H11.916H11.916H11.916H11.9159H11.9159H11.9159H11.9159H11.9159H11.9159H11.9159H11.9159H11.9159H11.9158H11.9158H11.9158H11.9158H11.9158H11.9158H11.9158H11.9158H11.9158H11.9158H11.9157H11.9157H11.9157H11.9157H11.9157H11.9157H11.9157H11.9157H11.9157H11.9157H11.9156H11.9156H11.9156H11.9156H11.9156H11.9156H11.9156H11.9156H11.9156H11.9156H11.9156H11.9156H11.9155H11.9155H11.9155H11.9155H11.9155H11.9155H11.9155H11.9155H11.9155H11.9155H11.9155H11.9155H11.9154H11.9154H11.9154H11.9154H11.9154H11.9154H11.9154H11.9154H11.9154H11.9154H11.9154H11.9154H11.9154H11.9154H11.9153H11.9153H11.9153H11.9153H11.9153H11.9153H11.9153H11.9153H11.9153H11.9153H11.9153H11.9153H11.9153H11.9153H11.9152H11.9152H11.9152H11.9152H11.9152H11.9152H11.9152H11.9152H11.9152H11.9152H11.9152H11.9152H11.9152H11.9152H11.9152H11.9152H11.9152H11.9151H11.9151H11.9151H11.9151H11.9151H11.9151H11.9151H11.9151H11.9151H11.9151H11.9151H11.9151H11.9151H11.9151H11.9151H11.9151H11.9151H11.9151H11.9151H11.9151H11.915H11.915H11.915H11.915H11.915H11.915H11.915H11.915H11.915H11.915H11.915H11.915H11.915H11.915H11.915H11.915H11.915H11.915H11.915H11.915H11.915H11.915H11.915H11.915H11.9149H11.9149H11.9149H11.9149H11.9149H11.9149H11.9149H11.9149H11.9149H11.9149H11.9149H11.9149H11.9149H11.9149H11.9149H11.9149H11.9149H11.9149H11.9149H11.9149H11.9149H11.9149H11.9149H11.9149H11.9149H11.9149H11.9149H11.9149H11.9149H11.9149H11.9149H11.9149H11.9148H11.9148H11.9148H11.9148H11.9148H11.9148H11.9148H11.9148H11.9148H11.9148H11.9148H11.9148H11.9148H11.9148H11.9148H11.9148H11.9148H11.9148H11.9148H11.9148H11.9148H11.9148H11.9148H11.9148H11.9148H11.9148H11.9148H11.9148H11.9148H11.9148H11.9148H11.9148H11.9148H11.9148H11.9148H11.9148H11.9148H11.9148H11.9148H11.9148H11.9148H11.9148H11.9148H11.9148H11.9148H11.9148H11.9148H11.9148H11.9148H11.9148H11.9148H11.9148H11.9148H11.9148H11.9147H11.9147H11.9147H11.9147H11.9147H11.9147H11.9147H11.9147H11.9147H11.9147H11.9147H11.9147H11.9147H11.9147H11.9147H11.9147H11.9147H11.9147H11.9147H11.9147H11.9147H11.9147H11.9147H11.9147H11.9147H11.9147H11.9147H11.9147H11.9147H11.9147H11.9147H11.9147H11.9147H11.9147H11.9147H11.9147H11.9147H11.9147H11.9147H11.9147H11.9147H11.9147H11.9147H11.9147H11.9147H11.9147H11.9147H11.9147H11.9147H11.9147H11.9147H11.9147H11.9147H11.9147H11.9147H11.9147H11.9147H11.9147H11.9147H11.9147H11.9147C11.7519 16.7582 11.6269 16.6292 11.6269 16.4767C11.6269 16.3212 11.7508 16.1952 11.9147 16.1952Z" fill="white" stroke="white" stroke-width="0.38462"/>
    <path d="M9.20704 16.1948H9.21129C9.3763 16.1948 9.50337 16.326 9.50337 16.4762C9.50337 16.6307 9.3763 16.7577 9.21554 16.7577H9.20704H9.20702H9.20699H9.20697H9.20694H9.20692H9.20689H9.20687H9.20685H9.20682H9.2068H9.20677H9.20675H9.20673H9.2067H9.20668H9.20666H9.20663H9.20661H9.20659H9.20656H9.20654H9.20652H9.20649H9.20647H9.20645H9.20643H9.2064H9.20638H9.20636H9.20634H9.20632H9.20629H9.20627H9.20625H9.20623H9.20621H9.20618H9.20616H9.20614H9.20612H9.2061H9.20608H9.20606H9.20604H9.20602H9.206H9.20598H9.20595H9.20593H9.20591H9.20589H9.20587H9.20585H9.20583H9.20581H9.20579H9.20577H9.20575H9.20574H9.20572H9.2057H9.20568H9.20566H9.20564H9.20562H9.2056H9.20558H9.20556H9.20554H9.20553H9.20551H9.20549H9.20547H9.20545H9.20543H9.20542H9.2054H9.20538H9.20536H9.20534H9.20533H9.20531H9.20529H9.20527H9.20526H9.20524H9.20522H9.20521H9.20519H9.20517H9.20515H9.20514H9.20512H9.2051H9.20509H9.20507H9.20505H9.20504H9.20502H9.20501H9.20499H9.20497H9.20496H9.20494H9.20493H9.20491H9.2049H9.20488H9.20486H9.20485H9.20483H9.20482H9.2048H9.20479H9.20477H9.20476H9.20474H9.20473H9.20471H9.2047H9.20468H9.20467H9.20466H9.20464H9.20463H9.20461H9.2046H9.20458H9.20457H9.20456H9.20454H9.20453H9.20452H9.2045H9.20449H9.20448H9.20446H9.20445H9.20444H9.20442H9.20441H9.2044H9.20438H9.20437H9.20436H9.20434H9.20433H9.20432H9.20431H9.20429H9.20428H9.20427H9.20426H9.20424H9.20423H9.20422H9.20421H9.2042H9.20418H9.20417H9.20416H9.20415H9.20414H9.20413H9.20411H9.2041H9.20409H9.20408H9.20407H9.20406H9.20405H9.20404H9.20403H9.20401H9.204H9.20399H9.20398H9.20397H9.20396H9.20395H9.20394H9.20393H9.20392H9.20391H9.2039H9.20389H9.20388H9.20387H9.20386H9.20385H9.20384H9.20383H9.20382H9.20381H9.2038H9.20379H9.20378H9.20377H9.20376H9.20375H9.20374H9.20374H9.20373H9.20372H9.20371H9.2037H9.20369H9.20368H9.20367H9.20366H9.20366H9.20365H9.20364H9.20363H9.20362H9.20361H9.2036H9.2036H9.20359H9.20358H9.20357H9.20356H9.20356H9.20355H9.20354H9.20353H9.20353H9.20352H9.20351H9.2035H9.20349H9.20349H9.20348H9.20347H9.20347H9.20346H9.20345H9.20344H9.20344H9.20343H9.20342H9.20342H9.20341H9.2034H9.20339H9.20339H9.20338H9.20337H9.20337H9.20336H9.20336H9.20335H9.20334H9.20334H9.20333H9.20332H9.20332H9.20331H9.2033H9.2033H9.20329H9.20329H9.20328H9.20328H9.20327H9.20326H9.20326H9.20325H9.20325H9.20324H9.20324H9.20323H9.20322H9.20322H9.20321H9.20321H9.2032H9.2032H9.20319H9.20319H9.20318H9.20318H9.20317H9.20317H9.20316H9.20316H9.20315H9.20315H9.20314H9.20314H9.20313H9.20313H9.20312H9.20312H9.20312H9.20311H9.20311H9.2031H9.2031H9.20309H9.20309H9.20309H9.20308H9.20308H9.20307H9.20307H9.20306H9.20306H9.20306H9.20305H9.20305H9.20305H9.20304H9.20304H9.20303H9.20303H9.20303H9.20302H9.20302H9.20302H9.20301H9.20301H9.20301H9.203H9.203H9.203H9.20299H9.20299H9.20299H9.20298H9.20298H9.20298H9.20297H9.20297H9.20297H9.20296H9.20296H9.20296H9.20296H9.20295H9.20295H9.20295H9.20294H9.20294H9.20294H9.20294H9.20293H9.20293H9.20293H9.20293H9.20292H9.20292H9.20292H9.20292H9.20291H9.20291H9.20291H9.20291H9.20291H9.2029H9.2029H9.2029H9.2029H9.20289H9.20289H9.20289H9.20289H9.20289H9.20288H9.20288H9.20288H9.20288H9.20288H9.20288H9.20287H9.20287H9.20287H9.20287H9.20287H9.20287H9.20286H9.20286H9.20286H9.20286H9.20286H9.20286H9.20285H9.20285H9.20285H9.20285H9.20285H9.20285H9.20285H9.20284H9.20284H9.20284H9.20284H9.20284H9.20284H9.20284H9.20284H9.20283H9.20283H9.20283H9.20283H9.20283H9.20283H9.20283H9.20283H9.20283H9.20282H9.20282H9.20282H9.20282H9.20282H9.20282H9.20282H9.20282H9.20282H9.20282H9.20282H9.20282H9.20281H9.20281H9.20281H9.20281H9.20281H9.20281H9.20281H9.20281H9.20281H9.20281H9.20281H9.20281H9.20281H9.20281H9.20281H9.20281H9.2028H9.2028H9.2028H9.2028H9.2028H9.2028H9.2028H9.2028H9.2028H9.2028H9.2028H9.2028H9.2028H9.2028H9.2028H9.2028H9.2028H9.20279H9.20279H9.20279H9.20279H9.20279H9.20279C9.04001 16.7577 8.91497 16.6287 8.91497 16.4762C8.91497 16.3229 9.04091 16.1948 9.20704 16.1948Z" fill="white" stroke="white" stroke-width="0.38462"/>
</svg>
