<svg width="112" height="45" viewBox="0 0 112 45" fill="none" xmlns="http://www.w3.org/2000/svg">
<path d="M36.0977 0.561523H35.8733C35.144 0.561523 34.4147 0.842072 33.9099 1.40317C33.3489 1.90816 33.0684 2.63758 33.0684 3.36701V3.53534C33.0684 4.26477 33.3489 4.99419 33.8538 5.49918C34.3586 6.00417 35.0879 6.34083 35.8172 6.34083H36.0416C36.7709 6.34083 37.5002 6.06028 38.0051 5.49918C38.51 4.99419 38.8466 4.26477 38.7905 3.53534V3.36701C38.7905 2.63758 38.51 1.90816 38.0051 1.40317C37.5002 0.842072 36.827 0.561523 36.0977 0.561523Z" fill="#43A4D3"/>
<path d="M35.9288 8.69727C34.5263 8.69727 33.4043 9.76335 33.4043 11.1661C33.4043 11.2222 33.4043 11.2222 33.4043 11.2783V28.6162C33.4043 29.2895 33.6287 29.9067 34.1336 30.4117C34.6385 30.9167 35.2556 31.1412 35.9288 31.1412C37.3312 31.1412 38.4532 30.0751 38.4532 28.6723V28.6162V11.2783C38.4532 10.605 38.2288 9.93168 37.7239 9.42669C37.2752 8.97781 36.602 8.69727 35.9288 8.69727Z" fill="#43A4D3"/>
<path d="M54.2183 8.52832H53.9939C51.9744 8.52832 50.1792 9.36997 48.4962 10.9971C48.384 9.70662 47.262 8.69665 45.9717 8.69665C45.2985 8.69665 44.6254 8.9772 44.1766 9.42608C43.7278 9.93106 43.4473 10.5483 43.4473 11.2216V28.6156C43.4473 30.0183 44.5693 31.1405 45.9156 31.1405C45.9156 31.1405 45.9156 31.1405 45.9717 31.1405C46.6449 31.1405 47.3181 30.86 47.7669 30.4111C48.2718 29.9622 48.5523 29.2889 48.5523 28.6156V16.4959C49.1694 15.6543 49.8987 14.9248 50.7963 14.3637C51.75 13.8026 52.8159 13.466 53.9378 13.5221H54.1622C54.8354 13.5221 55.4525 13.2976 55.9574 12.9049C56.4623 12.456 56.7428 11.7827 56.7428 11.1094C56.7428 10.4361 56.5184 9.81884 56.0696 9.31386C55.5086 8.75276 54.8915 8.52832 54.2183 8.52832Z" fill="#43A4D3"/>
<path d="M84.68 0C84.0068 0 83.3336 0.224439 82.8848 0.729426C82.3799 1.23441 82.0994 1.85162 82.1555 2.58105V28.616C82.1555 29.2893 82.436 29.9626 82.8848 30.4115C83.8946 31.4214 85.5215 31.4214 86.4752 30.4115C86.9801 29.9626 87.2045 29.2893 87.2045 28.616V2.52494C87.2045 1.85162 86.9801 1.1783 86.4752 0.673317C86.0264 0.224439 85.3532 0 84.68 0Z" fill="#43A4D3"/>
<path d="M96.4608 17.226C96.573 16.665 96.7413 16.1039 96.9657 15.5989C97.9194 13.7472 99.4341 12.7934 101.566 12.7934C102.912 12.7934 104.034 13.1861 104.932 13.9717C105.886 14.7572 106.447 15.8233 106.671 17.1699L96.4608 17.226ZM101.622 8.19238C98.1999 8.19238 95.5071 9.4268 93.6559 11.7834C92.029 13.8595 91.1875 16.5527 91.1875 19.6388C91.1875 23.2859 92.1973 26.0914 94.1608 28.1113C96.1242 30.1313 98.9292 31.1413 102.407 31.1413C103.922 31.1413 105.381 30.9729 106.839 30.5802C107.4 30.4118 107.905 30.2435 108.466 29.963C108.915 29.7385 109.476 29.458 110.093 29.1774C110.934 28.7285 111.383 27.9991 111.383 26.9891C111.383 26.3719 111.103 25.8108 110.654 25.4181C110.261 25.0253 109.7 24.8009 109.139 24.7448C108.691 24.7448 108.13 24.9131 107.569 25.1936C106.278 25.8108 104.651 26.1475 102.688 26.1475C100.837 26.1475 99.378 25.6425 98.3121 24.7448C97.4706 23.9031 96.8535 22.837 96.6291 21.6587H109.364C110.149 21.6587 110.766 21.4343 111.271 20.9293C111.72 20.4243 112 19.8071 112 19.1338C112 16.1039 111.103 13.5789 109.364 11.5029C107.456 9.31458 104.82 8.19238 101.622 8.19238Z" fill="#43A4D3"/>
<path d="M75.1995 22.3877C75.1434 22.4438 75.0873 22.4999 75.0312 22.556C75.0873 22.4999 75.1434 22.4438 75.1995 22.3877Z" fill="#43A5D5"/>
<path d="M73.2922 30.4111L73.2361 30.4672C73.1239 30.5234 73.0678 30.5234 73.0117 30.5795C73.0678 30.5234 73.18 30.5234 73.2361 30.4672C73.18 30.5234 73.1239 30.5234 73.0117 30.5795C73.0678 30.5234 73.18 30.5234 73.2361 30.4672L73.2922 30.4111Z" fill="#43A5D5"/>
<path d="M73.2361 30.4111C73.1239 30.4672 73.0678 30.4672 73.0117 30.5234H73.0678C73.0678 30.5234 73.1239 30.4672 73.2361 30.4111Z" fill="#1B6DB4"/>
<path d="M62.2407 21.4343V21.3782V21.4343ZM68.8044 8.19238C67.0092 8.19238 65.214 8.64126 63.5871 9.4268L63.4749 9.48291C63.4188 9.53902 63.3627 9.53902 63.2505 9.59513C58.8187 12.0078 56.5186 17.0016 57.5284 21.9393V21.9954C57.5845 22.1076 57.5845 22.2759 57.6406 22.3881V22.4443C58.5382 26.0914 61.1187 29.0091 64.5969 30.4118H64.653C64.7652 30.4679 64.8774 30.4679 64.9896 30.5241L65.0457 30.5802H65.1018C66.2799 30.9729 67.5141 31.1974 68.8044 31.1974C70.2068 31.1974 71.5532 30.9729 72.8435 30.4679L72.8996 30.4118L73.0118 30.3557C73.0679 30.2996 73.1801 30.2996 73.2362 30.2435L73.2923 30.1874H73.3484C74.6948 29.6263 75.929 28.7285 76.9949 27.7186C77.5559 27.1575 78.0608 26.5403 78.5096 25.8669C78.6218 25.6986 78.7339 25.5303 78.79 25.4181C78.8461 25.362 78.9022 25.2497 78.9022 25.1936C79.0144 25.0253 79.1266 24.8009 79.1827 24.5764C79.1827 24.5203 79.2388 24.4642 79.2388 24.4081C79.2388 24.352 79.2949 24.2959 79.2949 24.2398C79.351 23.847 79.2949 23.3981 79.1266 23.0053C79.0705 22.837 79.0144 22.7248 78.9022 22.6126C78.79 22.5004 78.7339 22.332 78.6217 22.2198C78.173 21.7709 77.612 21.5465 76.9949 21.5465C76.8827 21.5465 76.8266 21.5465 76.7144 21.5465C76.6022 21.5465 76.49 21.6026 76.3217 21.6026C75.929 21.7148 75.5363 21.9393 75.2558 22.2198C75.1997 22.2759 75.1436 22.332 75.0875 22.3881C74.9753 22.5004 74.8631 22.6687 74.807 22.7809C74.4704 23.3981 74.0777 23.9031 73.6289 24.4081C73.0118 25.0253 72.2264 25.5864 71.441 25.9231C71.3849 25.9231 71.3288 25.9792 71.2727 25.9792H71.2166C70.4873 26.2597 69.6459 26.428 68.8605 26.428C68.0751 26.428 67.3458 26.3158 66.6165 26.0353C66.5604 26.0353 66.5043 25.9792 66.5043 25.9792C65.6067 25.6425 64.8213 25.1375 64.2042 24.4642C63.2505 23.5664 62.5773 22.332 62.3529 21.0415C61.9041 18.8532 62.5212 16.4966 64.1481 14.9255C64.5969 14.4767 65.1018 14.0839 65.6628 13.7472C65.7189 13.6911 65.775 13.6911 65.8872 13.635C68.4678 12.3445 71.6093 12.7934 73.685 14.8694C74.0777 15.2622 74.4143 15.655 74.6948 16.16C74.807 16.4405 74.9753 16.665 75.1997 16.8333C76.1534 17.731 77.6681 17.731 78.5657 16.7772C79.351 15.9916 79.4632 14.8133 78.9022 13.8595C78.3974 13.0178 77.7803 12.1762 77.051 11.5029C74.6948 9.37069 71.7776 8.19238 68.8044 8.19238Z" fill="#43A4D3"/>
<path d="M26.5601 18.0107C27.4016 18.0107 28.2431 18.3474 28.804 18.9646C29.8699 20.0307 30.0382 21.6579 29.3089 22.9484C29.2528 23.0606 29.1406 23.2289 29.0845 23.3412C28.9723 23.5656 28.8601 23.79 28.6919 23.9584C28.1309 24.8561 27.4577 25.6978 26.6723 26.4833C25.2698 27.8861 23.5868 29.0644 21.7916 29.8499C22.0721 29.6816 19.7159 29.2327 19.9403 29.0083C21.1745 27.7177 21.6233 28.7838 20.3891 27.5494C19.7721 26.9322 20.1647 26.1467 19.3794 26.1467C18.9867 26.1467 19.4916 23.9023 19.155 24.0145C19.0428 24.0706 18.9306 24.1267 18.8184 24.1267C18.9306 24.0706 19.0428 24.0145 19.155 23.9584C20.2769 23.5095 21.2867 22.7801 22.1282 21.9384C22.7453 21.3212 23.3063 20.5918 23.699 19.7501L26.5601 18.0107Z" fill="#F68F4D"/>
<path d="M26.6159 18.0107C25.7183 18.0107 24.8769 18.3474 24.2598 18.9646L26.6159 18.0107Z" fill="#F68F4D"/>
<path d="M10.5723 30.3551C13.9943 31.4773 17.6408 31.4212 21.0067 30.1868C21.0067 30.1868 21.2872 30.0746 21.4555 30.0185C21.6238 29.9624 18.7628 24.127 18.7628 24.127H18.7067L10.5723 30.3551ZM18.7067 24.1831C16.7432 24.9125 14.5553 24.9125 12.5918 24.2392C12.9284 24.4075 10.5723 30.1307 10.8528 30.4112" fill="#EE5451"/>
<path d="M6.645 17.6741C6.645 17.7302 5.97181 17.4497 5.97181 17.5619C5.97181 17.6741 5.97181 17.7864 5.97181 17.9547C5.97181 17.9547 5.97181 18.123 5.97181 18.0669C6.08401 19.0208 5.35471 18.0108 4.62542 18.7402C4.00833 19.3574 4.00833 18.5719 3.16684 18.5719C2.32535 18.5719 2.43755 19.6941 1.82045 19.0769C1.42776 18.6841 0.586267 19.8063 0.417969 19.3574C0.474068 19.5258 0.474068 19.5819 0.474068 19.5819C0.474068 19.5819 0.474068 19.5258 0.417969 19.4135C1.65216 24.239 5.13032 28.2228 9.84266 30.0744C9.56217 29.9061 11.0208 28.7278 10.7964 28.5033C9.50607 27.2689 9.56217 27.9983 10.7964 26.7078C11.4134 26.0906 11.4695 26.2589 12.2549 26.2589C12.6476 26.2589 12.0305 24.0706 12.3671 24.239L12.4793 24.2951L12.5915 24.3512L12.4793 24.2951C12.4232 24.2951 12.3671 24.239 12.311 24.239C9.44997 23.0607 7.31819 20.648 6.645 17.6741Z" fill="#79C698"/>
<path d="M0.418353 19.2455C0.418353 19.2455 0.418353 19.3016 0.418353 19.2455C0.418353 19.3016 0.418353 19.2455 0.418353 19.2455ZM8.04787 1.90759C6.75758 2.63701 5.5234 3.53477 4.45751 4.65696C0.811048 8.36021 -0.703635 13.5784 0.306154 18.6844C0.193955 17.7305 1.42814 19.2455 2.15743 18.5161C2.77453 17.8989 2.60623 17.6744 3.44772 17.6744C4.28921 17.6744 4.23311 18.8527 4.9063 19.4699C5.4112 19.9749 6.64538 17.1694 6.75758 17.8427V17.955C6.75758 17.955 6.75758 17.955 6.75758 17.8989C6.75758 17.8427 6.75758 17.8427 6.75758 17.7866C6.75758 17.7305 6.75758 17.6744 6.75758 17.6183L6.70148 17.45C6.70148 17.5061 6.70148 17.5622 6.75758 17.6183C6.75758 17.6183 6.75758 17.6183 6.75758 17.6744C6.75758 17.6183 6.75758 17.5622 6.70148 17.5061C6.02829 14.4762 6.98198 11.3901 9.11375 9.14574C9.73085 8.52853 10.404 7.96744 11.1894 7.57467C11.2455 7.57467 11.2455 7.51856 11.3016 7.51856H11.3577C11.4138 7.51856 11.4699 7.46245 11.4699 7.46245C11.3577 7.51856 11.3016 7.57467 11.1894 7.63078C10.7406 7.85522 11.0772 5.72305 10.6284 5.72305C9.78695 5.72305 10.0674 5.66694 9.45035 5.04973C8.16006 3.81532 9.33815 3.7031 10.5723 2.41257C10.6845 2.18814 7.82347 2.01981 8.04787 1.90759ZM8.38446 1.73926C8.32836 1.73926 8.27226 1.79537 8.21616 1.79537C8.16006 1.85148 8.10397 1.85148 8.10397 1.85148C8.16007 1.85148 8.27226 1.79537 8.38446 1.73926Z" fill="#56BFED"/>
<path d="M15.5655 0C13.041 0 10.5726 0.617207 8.38477 1.7394C8.83356 1.51496 8.21647 2.91771 8.72136 2.91771C9.56285 2.91771 8.94576 3.4788 9.56285 4.09601C10.8531 5.33042 11.0775 5.10599 9.84335 6.39651C9.67505 6.56484 11.6385 7.29427 11.4141 7.40648C15.6777 5.27431 20.8388 6.73317 23.3633 10.7731C23.5316 11.1097 23.756 11.4464 24.0365 11.7269C25.3268 12.9613 27.3464 12.9052 28.5805 11.6147C29.5903 10.5486 29.7586 8.92145 29.0293 7.68703C26.1683 2.91771 21.0632 0 15.5655 0Z" fill="#43A4D3"/>
<path d="M29.7581 21.2651C29.7581 19.4696 28.2995 18.0669 26.5604 18.0107C24.7652 18.0107 23.3627 19.4696 23.3066 21.209C23.3066 23.0045 24.7652 24.4073 26.5043 24.4634C28.2995 24.4634 29.7581 23.0606 29.7581 21.2651Z" fill="#F7D13B"/>
<path d="M23.4188 27.0449C23.4188 25.2494 21.9602 23.8467 20.2211 23.8467C18.482 23.8467 17.0234 25.3055 17.0234 27.0449C17.0234 28.8404 18.482 30.2432 20.2211 30.2432C21.9602 30.2993 23.4188 28.8404 23.4188 27.0449Z" fill="#E33326"/>
<path d="M14.5003 27.2133C14.5003 25.4178 13.0417 23.959 11.3026 23.959C9.50741 23.959 8.04883 25.4178 8.04883 27.1572C8.04883 28.9527 9.50741 30.4116 11.2465 30.4116C13.0978 30.4116 14.5003 29.0089 14.5003 27.2133Z" fill="#714131"/>
<path d="M6.70197 18.292C6.70197 16.4965 5.24339 15.0938 3.50431 15.0938C1.70913 15.0938 0.306641 16.5526 0.306641 18.292C0.306641 20.0875 1.76522 21.4903 3.50431 21.4903C5.24339 21.4903 6.70197 20.0875 6.70197 18.292Z" fill="#20958F"/>
<path d="M12.9852 4.65724C12.9852 2.86173 11.5266 1.45898 9.78751 1.45898C7.99233 1.45898 6.58984 2.91784 6.58984 4.65724C6.58984 6.39664 8.04843 7.85549 9.78751 7.85549C11.5266 7.9116 12.9852 6.45275 12.9852 4.65724Z" fill="#287EBE"/>
<path d="M21.6236 36.9766H23.6432C24.092 36.9766 24.5408 37.0327 24.9896 37.1449C25.3823 37.2571 25.7189 37.4254 25.9994 37.706C26.7848 38.3793 27.1774 39.4454 27.1774 40.9042C27.1774 41.3531 27.1213 41.7459 27.0652 42.1948C27.0091 42.5875 26.8409 42.9242 26.6726 43.2609C26.5043 43.5975 26.2799 43.8781 26.0555 44.1025C25.8311 44.2708 25.6067 44.4392 25.3823 44.5514C25.1579 44.6636 24.8774 44.7758 24.5969 44.7758C24.2603 44.8319 23.9798 44.8319 23.6432 44.8319H21.6236C21.3992 44.8319 21.1748 44.7758 21.0065 44.7197C20.8943 44.6636 20.7821 44.4953 20.726 44.3269C20.6699 44.1025 20.6699 43.9342 20.6699 43.7097V37.9304C20.6699 37.5938 20.726 37.3693 20.8943 37.201C21.0626 37.0327 21.287 36.9766 21.6236 36.9766ZM22.2407 38.211V43.4853H23.4188C23.6993 43.4853 23.8676 43.4853 24.0359 43.4853C24.2042 43.4853 24.3164 43.4292 24.4847 43.3731C24.653 43.317 24.7652 43.2609 24.8774 43.1486C25.3823 42.6998 25.6628 41.9142 25.6628 40.8481C25.6628 40.0626 25.5506 39.5015 25.3262 39.1087C25.1579 38.7721 24.8213 38.4915 24.4847 38.3793C24.092 38.2671 23.6993 38.211 23.2505 38.211H22.2407Z" fill="#606060"/>
<path d="M30.6566 37.8176L33.6299 42.4186V37.7615C33.6299 37.537 33.686 37.2565 33.7982 37.0882C33.9104 36.9198 34.1348 36.8637 34.3031 36.8637C34.5275 36.8637 34.6958 36.9198 34.808 37.0882C34.9763 37.3126 35.0324 37.537 34.9763 37.7615V43.8774C34.9763 44.5508 34.6958 44.8874 34.1348 44.8874C34.0226 44.8874 33.8543 44.8874 33.7421 44.8313C33.6299 44.7752 33.5177 44.7191 33.4055 44.663C33.2933 44.5508 33.2372 44.4385 33.125 44.3263C33.0689 44.2141 32.9567 44.1019 32.9006 43.9897L29.9834 39.4448V43.9897C29.9834 44.2141 29.9273 44.4946 29.759 44.663C29.4785 44.9435 29.0297 44.9996 28.7492 44.7191C28.7492 44.7191 28.7492 44.7191 28.6931 44.663C28.5249 44.4946 28.4688 44.2141 28.4688 43.9897V37.9859C28.4688 37.7615 28.4688 37.5932 28.5809 37.3687C28.637 37.2004 28.7492 37.0882 28.9175 36.9759C29.0858 36.8637 29.2541 36.8076 29.4224 36.8076C29.6468 36.8076 29.8712 36.8637 30.0395 37.0882C30.1517 37.2004 30.2078 37.2565 30.2639 37.3687C30.4883 37.537 30.5444 37.6493 30.6566 37.8176Z" fill="#606060"/>
<path d="M41.5402 43.878L41.1475 42.868H38.0059L37.6132 43.878C37.501 44.1585 37.3888 44.4391 37.2205 44.6635C37.1083 44.8318 36.94 44.888 36.7156 44.888C36.5473 44.888 36.3229 44.8318 36.2107 44.6635C36.0424 44.5513 35.9863 44.383 35.9863 44.1585C35.9863 44.0463 35.9863 43.9341 36.0424 43.8219C36.0985 43.7096 36.1546 43.5413 36.2107 43.373L38.1742 38.3231C38.2303 38.1548 38.2864 37.9865 38.3986 37.8181C38.4547 37.6498 38.5669 37.4815 38.623 37.3131C38.7352 37.2009 38.8474 37.0887 38.9596 36.9765C39.1279 36.8643 39.2962 36.8643 39.5206 36.8643C39.6889 36.8643 39.9133 36.9204 40.0816 36.9765C40.1938 37.0326 40.3621 37.1448 40.4182 37.3131C40.5304 37.4254 40.5865 37.5937 40.6426 37.762C40.6987 37.9303 40.7548 38.0987 40.867 38.3792L42.8866 43.4291C42.9988 43.7097 43.111 43.9902 43.111 44.2707C43.111 44.4391 43.0549 44.6635 42.8866 44.7757C42.7183 44.9441 42.55 45.0002 42.3256 45.0002C42.2134 45.0002 42.1012 45.0002 41.989 44.9441C41.8768 44.888 41.8207 44.8318 41.7646 44.7757C41.7085 44.6635 41.5963 44.5513 41.5963 44.4391C41.6524 44.1585 41.5963 44.0463 41.5402 43.878ZM38.4547 41.7458H40.7548L39.5767 38.5476L38.4547 41.7458Z" fill="#606060"/>
<path d="M48.72 43.9339V41.465L46.8687 38.4912C46.7565 38.2668 46.6443 38.0985 46.5321 37.874C46.476 37.7618 46.4199 37.5935 46.4199 37.4813C46.4199 37.3129 46.476 37.1446 46.6443 37.0324C46.7565 36.9202 46.9809 36.8079 47.1492 36.864C47.3175 36.864 47.4858 36.9202 47.6541 37.0324C47.8224 37.2568 47.9907 37.4813 48.159 37.7618L49.6176 40.1184L51.0762 37.7618L51.3006 37.369C51.3567 37.2568 51.4128 37.2007 51.4689 37.0885C51.525 37.0324 51.6372 36.9202 51.6933 36.864C51.9738 36.7518 52.3104 36.8079 52.4786 36.9763C52.5908 37.0885 52.6469 37.2568 52.6469 37.4251C52.6469 37.5935 52.5908 37.7057 52.5347 37.8179C52.4225 38.0424 52.3104 38.2107 52.1982 38.379L50.2908 41.3528V43.8217C50.2908 44.1022 50.2347 44.3266 50.0664 44.5511C49.7859 44.8877 49.281 44.8877 48.9444 44.5511C48.8322 44.495 48.72 44.2705 48.72 43.9339Z" fill="#606060"/>
<path d="M58.3136 41.97C58.3136 42.3628 58.2575 42.7555 58.0892 43.1483C57.977 43.485 57.7526 43.8216 57.5282 44.1022C57.2477 44.3827 56.9672 44.551 56.6306 44.7194C56.2379 44.8877 55.8452 44.9438 55.4525 44.9438C55.0598 44.9438 54.6671 44.8877 54.2744 44.7194C53.9378 44.6072 53.6573 44.3827 53.3768 44.1022C53.0963 43.8216 52.928 43.5411 52.8158 43.1483C52.5353 42.3628 52.5353 41.5211 52.8158 40.7356C52.928 40.3989 53.1524 40.0623 53.3768 39.7817C53.6573 39.5012 53.9378 39.3328 54.2744 39.1645C55.0037 38.884 55.8452 38.884 56.6306 39.1645C56.9672 39.2767 57.3038 39.5012 57.5282 39.7817C57.8087 40.0623 57.977 40.3428 58.0892 40.7356C58.2575 41.1284 58.3136 41.5772 58.3136 41.97ZM56.855 41.97C56.855 41.3528 56.7428 40.9039 56.4623 40.5673C56.2379 40.2306 55.8452 40.0623 55.4525 40.0623C55.172 40.0623 54.9476 40.1184 54.7232 40.2867C54.4988 40.455 54.3305 40.6795 54.2183 40.96C54.1061 41.2967 54.05 41.6333 54.05 41.97C54.05 42.3067 54.1061 42.6433 54.2183 42.98C54.3305 43.2605 54.4988 43.485 54.7232 43.6533C55.2842 44.0461 56.0696 43.9338 56.5184 43.3727C56.7428 42.98 56.855 42.5311 56.855 41.97Z" fill="#606060"/>
<path d="M63.137 44.1025V43.9342C62.9687 44.1586 62.8004 44.327 62.576 44.4953C62.4077 44.6636 62.1833 44.7758 61.9589 44.832C61.7345 44.8881 61.454 44.9442 61.1735 44.9442C60.8369 44.9442 60.5564 44.8881 60.2199 44.7197C59.9394 44.6075 59.715 44.3831 59.6028 44.1025C59.4345 43.7659 59.3223 43.3731 59.3223 42.7559V39.8943C59.3223 39.6699 59.3784 39.4454 59.4906 39.221C59.6028 39.0526 59.8272 38.9965 59.9955 38.9965C60.2199 38.9965 60.3882 39.0526 60.5003 39.221C60.6686 39.3893 60.7247 39.6137 60.7247 39.8943V42.1948C60.7247 42.4753 60.7247 42.7559 60.8369 43.0364C60.893 43.2609 61.0052 43.4292 61.1174 43.5975C61.2857 43.7098 61.5101 43.822 61.7345 43.7659C61.9589 43.7659 62.2394 43.7098 62.4077 43.5414C62.6321 43.4292 62.8004 43.2048 62.8565 42.9803C62.9126 42.7559 62.9687 42.307 62.9687 41.6337V39.8382C62.9687 39.6137 63.0248 39.3893 63.1931 39.1649C63.3053 38.9965 63.5297 38.9404 63.698 38.9404C63.8663 38.9404 64.0907 38.9965 64.2029 39.1649C64.3712 39.3332 64.4273 39.5576 64.3712 39.8382V44.0464C64.3712 44.2709 64.3151 44.4953 64.2029 44.6636C64.0907 44.7758 63.9224 44.8881 63.698 44.8881C63.5297 44.8881 63.3614 44.832 63.1931 44.6636C63.1931 44.5514 63.137 44.327 63.137 44.1025Z" fill="#606060"/>
<path d="M67.3453 42.8121V44.0465C67.3453 44.2709 67.2892 44.4954 67.1209 44.7198C67.0087 44.8881 66.7843 44.9443 66.616 44.9443C66.4477 44.9443 66.2233 44.8881 66.1111 44.7198C65.9428 44.5515 65.8867 44.2709 65.8867 44.0465V40.0066C65.8867 39.3333 66.1111 39.0527 66.5599 39.0527C66.7843 39.0527 66.9526 39.1088 67.0648 39.2772C67.177 39.5016 67.2331 39.7261 67.2331 39.9505C67.3453 39.6699 67.5697 39.4455 67.738 39.2772C67.9624 39.1088 68.1868 39.0527 68.4673 39.0527C68.7478 39.0527 69.0844 39.1088 69.3649 39.2772C69.6454 39.4455 69.8137 39.6138 69.8137 39.8944C69.8137 40.0627 69.7576 40.231 69.6454 40.3433C69.5332 40.4555 69.421 40.5116 69.2527 40.5116C69.1405 40.5116 68.9722 40.4555 68.86 40.3994C68.6917 40.3433 68.5234 40.2872 68.3551 40.2872C68.1868 40.2872 67.9624 40.3433 67.8502 40.4555C67.6819 40.5677 67.5697 40.736 67.5136 40.9605C67.4575 41.241 67.4014 41.4655 67.3453 41.746C67.3453 42.0266 67.3453 42.3632 67.3453 42.8121Z" fill="#606060"/>
<path d="M74.9184 37.8181V43.4852H78.06C78.2844 43.4852 78.4527 43.5413 78.621 43.6535C78.7332 43.7658 78.8454 43.9341 78.8454 44.1024C78.8454 44.2707 78.7893 44.4391 78.621 44.5513C78.4527 44.6635 78.2283 44.7196 78.06 44.7196H74.3013C73.9647 44.7196 73.7403 44.6635 73.5721 44.4952C73.4038 44.3269 73.3477 44.1024 73.3477 43.7658V37.8181C73.3477 37.5376 73.4038 37.3131 73.5721 37.0887C73.6842 36.9204 73.9086 36.8643 74.133 36.8643C74.3574 36.8643 74.5818 36.9204 74.694 37.0887C74.8623 37.257 74.9184 37.4815 74.9184 37.8181Z" fill="#606060"/>
<path d="M81.2008 39.8377V44.046C81.2008 44.2704 81.1447 44.4948 80.9764 44.7193C80.8642 44.8876 80.6398 44.9437 80.4715 44.9437C80.3032 44.9437 80.0788 44.8876 79.9666 44.7193C79.7983 44.5509 79.7422 44.3265 79.7422 44.046V39.8938C79.7422 39.6694 79.7983 39.445 79.9666 39.2205C80.0788 39.0522 80.3032 38.9961 80.4715 38.9961C80.6398 38.9961 80.8642 39.0522 80.9764 39.2205C81.1447 39.3889 81.2008 39.6133 81.2008 39.8377Z" fill="#606060"/>
<path d="M82.5471 39.1646H82.8837V38.7157C82.8837 38.3229 82.9398 37.9863 83.052 37.6496C83.1642 37.3691 83.3886 37.2007 83.613 37.0885C83.9496 36.9763 84.3423 36.8641 84.735 36.9202C85.5765 36.9202 85.9692 37.1446 85.9692 37.5374C85.9692 37.6496 85.9131 37.818 85.857 37.8741C85.8009 37.9863 85.6887 38.0424 85.5204 38.0424C85.4082 38.0424 85.3521 38.0424 85.2399 37.9863C85.1277 37.9863 85.0155 37.9302 84.9033 37.9302C84.6228 37.9302 84.4545 37.9863 84.3984 38.1546C84.3423 38.379 84.2862 38.6035 84.2862 38.8279V39.1646H84.6228C85.1838 39.1646 85.4643 39.3329 85.4643 39.6696C85.4643 39.894 85.4082 40.0623 85.2399 40.1185C85.0716 40.1746 84.8472 40.2307 84.6228 40.2307H84.2862V44.1022C84.2862 44.3267 84.2301 44.5511 84.0618 44.7756C83.9496 44.9439 83.7252 45 83.5569 45C83.3886 45 83.1642 44.9439 83.052 44.7756C82.8837 44.6072 82.8276 44.3267 82.8276 44.1022V40.2307H82.4349C82.2666 40.2307 82.0983 40.1746 81.93 40.0623C81.8178 39.9501 81.7617 39.8379 81.7617 39.6696C81.8739 39.3329 82.0983 39.1646 82.5471 39.1646Z" fill="#606060"/>
<path d="M90.1219 42.307H87.3169C87.3169 42.5876 87.373 42.9242 87.4852 43.2048C87.5974 43.4292 87.7657 43.6537 87.9901 43.7659C88.2145 43.8781 88.4389 43.9342 88.6633 43.9342C88.8316 43.9342 88.9999 43.9342 89.1121 43.8781C89.2804 43.822 89.3926 43.7659 89.5048 43.7098C89.617 43.5975 89.7292 43.5414 89.8975 43.4292C90.0097 43.317 90.178 43.2048 90.3463 43.0364C90.4585 42.9803 90.5706 42.9242 90.6828 42.9242C90.795 42.9242 90.9633 42.9803 91.0194 43.0364C91.1316 43.1487 91.1877 43.2609 91.1316 43.3731C91.1316 43.5414 91.0755 43.7098 90.9633 43.822C90.8511 43.9903 90.6828 44.2148 90.5145 44.327C90.2901 44.4953 90.0097 44.6636 89.7292 44.7197C89.3926 44.832 88.9999 44.8881 88.6633 44.8881C87.7657 44.8881 87.0364 44.6075 86.5315 44.1025C86.0266 43.5975 85.7461 42.8681 85.7461 41.9142C85.7461 41.5215 85.8022 41.1287 85.9144 40.7359C86.0266 40.3993 86.1949 40.0626 86.4754 39.7821C86.6998 39.5015 87.0364 39.3332 87.373 39.1649C87.7657 38.9965 88.1584 38.9404 88.5511 38.9404C89.056 38.9404 89.5609 39.0526 90.0097 39.2771C90.4023 39.5015 90.6828 39.8382 90.9072 40.231C91.0755 40.5676 91.1877 40.9604 91.1877 41.4093C91.1877 41.802 91.0755 42.0265 90.8511 42.1387C90.6828 42.2509 90.4023 42.307 90.1219 42.307ZM87.3169 41.4654H89.8975C89.8414 40.9604 89.7292 40.5676 89.5048 40.3432C89.2804 40.1187 88.9438 39.9504 88.6072 39.9504C88.2706 39.9504 87.934 40.0626 87.7096 40.3432C87.4852 40.6237 87.373 41.0165 87.3169 41.4654Z" fill="#606060"/>
<path d="M80.5278 38.3227C80.3595 38.3227 80.1351 38.2665 80.0229 38.1543C79.7424 37.8738 79.7424 37.4249 80.0229 37.1444C80.1351 37.0321 80.3595 36.9199 80.5278 36.9199C80.6961 36.9199 80.8644 36.976 81.0327 37.0882C81.201 37.2005 81.2571 37.4249 81.2571 37.5932C81.2571 37.8177 81.201 37.986 81.0327 38.0982C80.8644 38.2665 80.6961 38.3227 80.5278 38.3227Z" fill="#606060"/>
</svg>
