<svg width="100" height="100" viewBox="0 0 100 100" fill="none" xmlns="http://www.w3.org/2000/svg">
    <g opacity="0.8">
        <path opacity="0.2" d="M50.3434 7.34338C45.4478 11.9942 43 17.7465 43 24.6004C43 31.9438 45.3254 37.8185 49.9762 42.2245C54.627 46.6305 60.5017 48.8335 67.6003 48.8335C69.5586 48.8335 71.1497 48.7112 72.3736 48.4664C73.5975 47.9768 74.4542 47.4873 74.9437 46.9977C74.699 55.3202 71.7616 62.5412 66.1317 68.6607C60.5017 74.7802 53.8927 78.5743 46.3045 80.043V99.8701C51.6897 99.1358 57.442 97.5447 63.5615 95.0969C69.9258 92.4043 75.6781 88.4879 80.8185 83.3475C86.2036 77.9623 90.6096 71.2309 94.0366 63.1531C97.4635 54.8306 99.1769 44.9171 99.1769 33.4124C99.1769 23.1317 96.362 15.054 90.732 9.17923C85.3469 3.05974 78.3707 0 69.8034 0C61.9704 0 55.4838 2.44779 50.3434 7.34338Z" fill="#F7D13B"/>
        <path opacity="0.2" d="M0 24.6004C0 17.7465 2.4478 11.9942 7.34339 7.34338C12.239 2.44779 18.6033 0 26.4362 0C35.0035 0 42.1021 3.05974 47.732 9.17923C53.362 15.054 56.1769 23.1317 56.1769 33.4124C56.1769 44.9171 54.4635 54.8306 51.0366 63.1531C47.6097 71.2309 43.2036 77.9623 37.8185 83.3475C32.4333 88.4879 26.5586 92.4043 20.1943 95.0969C14.0748 97.5447 8.32251 99.1358 2.93736 99.8701V80.043C10.5255 78.5743 17.1346 74.7802 22.7645 68.6607C28.3944 62.5412 31.4542 55.3202 31.9438 46.9977C31.4542 47.4873 30.4751 47.9768 29.0064 48.4664C27.7825 48.7112 26.1914 48.8335 24.2332 48.8335C17.1346 48.8335 11.2599 46.6305 6.60905 42.2245C2.20302 37.8185 0 31.9438 0 24.6004Z" fill="#F7D13B"/>
    </g>
</svg>
