<svg width="173" height="25" viewBox="0 0 173 25" fill="none" xmlns="http://www.w3.org/2000/svg">
    <g clip-path="url(#clip0)">
        <path fill-rule="evenodd" clip-rule="evenodd" d="M43.4437 24.5164H39.3062L39.5648 22.9911H39.4909C38.5304 24.3676 36.6833 25.0001 35.0579 25.0001C30.6618 25.0001 28.7408 21.503 29.4796 17.448C30.2923 12.8349 34.0974 9.93311 37.8285 9.93311C40.082 9.93311 41.1533 11.0492 41.5228 11.9048H41.5966L41.8552 10.4167H45.9928L43.4437 24.5164ZM36.4247 21.0938C39.0476 21.0938 40.3037 18.8617 40.5623 17.5224C40.8578 15.8111 40.082 13.951 37.7177 13.951C35.3534 13.951 33.9127 15.9971 33.6541 17.5596C33.3955 18.8617 33.9496 21.0938 36.4247 21.0938Z" fill="#333333"/>
        <path fill-rule="evenodd" clip-rule="evenodd" d="M48.2464 10.4538H52.1254L51.8668 11.9419H51.9407C52.384 11.2723 53.3814 9.97021 55.7826 9.97021L55.0069 14.2113C53.0859 14.2857 51.6821 14.6577 51.2757 16.8155L49.8719 24.5536H45.7344L48.2464 10.4538Z" fill="#333333"/>
        <path fill-rule="evenodd" clip-rule="evenodd" d="M58.5533 4.98535H62.6908L60.7698 15.5508H60.8068L65.6092 10.4541H70.5225L64.1685 16.6297L67.7888 24.5166H63.0972L60.4373 17.7458H60.3634L59.1444 24.5166H55.0068L58.5533 4.98535Z" fill="#333333"/>
        <path fill-rule="evenodd" clip-rule="evenodd" d="M82.3071 20.1265C81.3466 21.689 80.1644 22.9166 78.8345 23.6979C77.5415 24.5163 76.0639 24.9628 74.6601 24.9628C70.6703 24.9628 67.8996 21.689 68.6754 17.5223C69.3773 13.616 73.1085 9.97021 77.3199 9.97021C81.5682 9.97021 84.0064 13.3556 83.2306 17.6711C83.1567 18.2291 83.0459 18.4524 82.9351 18.7872H72.5543C72.4805 20.4613 73.6996 21.4285 75.325 21.4285C76.618 21.4285 77.3938 20.8333 78.0957 20.0893H82.3071V20.1265ZM79.3886 15.9226C79.3517 15.1041 78.8345 13.5044 76.6919 13.5044C74.5492 13.5044 73.441 15.0669 73.1085 15.9226H79.3886Z" fill="#333333"/>
        <path fill-rule="evenodd" clip-rule="evenodd" d="M131.551 24.5164H127.414L127.672 22.9911H127.598C126.638 24.3676 124.791 25.0001 123.165 25.0001C118.769 25.0001 116.848 21.503 117.587 17.448C118.4 12.8349 122.205 9.93311 125.936 9.93311C128.189 9.93311 129.261 11.0492 129.63 11.9048H129.704L129.963 10.4167H134.1L131.551 24.5164ZM124.569 21.0938C127.192 21.0938 128.448 18.8617 128.707 17.5224C129.002 15.8111 128.226 13.951 125.862 13.951C123.498 13.951 122.057 15.9971 121.798 17.5596C121.503 18.8617 122.057 21.0938 124.569 21.0938Z" fill="#333333"/>
        <path fill-rule="evenodd" clip-rule="evenodd" d="M158.039 19.1963C156.709 22.3957 153.458 24.9999 149.69 24.9999C145.479 24.9999 142.893 21.6517 143.631 17.485C144.407 13.3555 148.175 10.0073 152.313 10.0073C156.007 10.0073 158.519 12.4627 158.556 15.9225H154.345C154.086 14.9552 153.421 13.9508 151.722 13.9508C149.764 13.8764 148.138 15.5133 147.769 17.5222C147.4 19.5683 148.434 21.0936 150.392 21.0936C152.091 21.0936 153.126 20.0892 153.717 19.1963H158.039Z" fill="#333333"/>
        <path fill-rule="evenodd" clip-rule="evenodd" d="M161.954 4.98535H166.092L164.872 11.7562H164.946C165.87 10.4913 167.384 10.0077 168.825 10.0077C170.155 10.0077 171.633 10.4913 172.335 11.5702C173.258 12.9467 173.147 14.2115 172.704 16.7041L171.263 24.5538H167.126L168.53 16.8901C168.641 16.2205 169.047 13.9511 166.83 13.9511C164.503 13.9511 164.134 16.0345 164.023 16.7413L162.619 24.5538H158.481L161.954 4.98535Z" fill="#333333"/>
        <path fill-rule="evenodd" clip-rule="evenodd" d="M23.8646 4.98535L16.5131 16.1089V4.98535H12.9297L0 24.5166H4.98719L12.3756 13.3931V24.5166H15.959L23.3105 13.3931V24.5166H27.448V4.98535H23.8646Z" fill="#333333"/>
        <path fill-rule="evenodd" clip-rule="evenodd" d="M93.7589 10.4537H91.136L91.9118 6.32422H88.2546L87.959 7.92392C87.6265 9.74684 86.5183 10.3049 84.9667 10.4537H84.8928L84.3018 13.6531H86.3336L84.3387 24.5162H88.4762L90.4711 13.6531H93.094L93.7589 10.4537Z" fill="#333333"/>
        <path fill-rule="evenodd" clip-rule="evenodd" d="M123.571 0L115.592 4.98512H117.808L110.457 16.1086V4.98512H106.837L99.4852 16.1086V4.98512H95.3477V24.5164H98.931L106.319 13.3929V24.5164H109.866L122.796 4.98512H124.827L123.571 0Z" fill="#333333"/>
        <path fill-rule="evenodd" clip-rule="evenodd" d="M144.481 10.4537H141.858L142.634 6.32422H138.976L138.681 7.92392C138.348 9.74684 137.24 10.3049 135.688 10.4537H135.615L135.023 13.6531H137.055L135.06 24.5162H139.198L141.193 13.6531H143.816L144.481 10.4537Z" fill="#333333"/>
    </g>
    <defs>
        <clipPath id="clip0">
            <rect width="173" height="25" fill="white"/>
        </clipPath>
    </defs>
</svg>
