<svg width="167" height="25" viewBox="0 0 167 25" fill="none" xmlns="http://www.w3.org/2000/svg">
    <path d="M46.7945 0H31.1963V8.31311H46.7945V0Z" fill="black"/>
    <path d="M0 0V8.31311H7.82812V25H15.5983V8.31311H23.4264V0H0Z" fill="black"/>
    <path d="M23.4268 24.9999H31.1969H46.8531V16.6868H31.1969V8.31299H23.4268V24.9999Z" fill="black"/>
    <path d="M66.742 6.31055H55.2607V9.76928H59.0878V20.6309H62.9149V9.76928H66.742V6.31055Z" fill="black"/>
    <path d="M71.0328 9.64795C68.3075 9.64795 66.3359 11.529 66.3359 15.2305C66.3359 18.5072 68.0175 20.813 71.1488 20.813C72.7724 20.813 74.0481 20.3882 75.3238 19.5994L73.9901 17.2329C72.9464 17.779 72.2505 17.9611 71.3227 17.9611C70.337 17.9611 69.6991 17.4149 69.5832 16.262H75.6137C75.6137 16.08 75.6137 15.8373 75.6137 15.5339C75.6137 11.5897 73.8741 9.64795 71.0328 9.64795ZM69.5832 14.0169C69.6991 12.9246 70.163 12.3785 70.9748 12.3785C72.0186 12.3785 72.3665 12.9246 72.5404 14.0169H69.5832Z" fill="black"/>
    <path d="M82.2823 17.8398C81.2966 17.8398 80.8327 16.9296 80.8327 15.2306C80.8327 13.5316 81.2966 12.5607 82.1664 12.5607C82.9202 12.5607 83.2681 12.9855 83.732 13.9563L86.1674 12.0146C85.2396 10.4976 84.1379 9.5874 82.2244 9.5874C78.9191 9.5874 77.3535 11.8325 77.3535 15.1699C77.3535 18.8107 79.1511 20.8131 82.1664 20.8131C83.9639 20.8131 85.1237 20.085 86.2834 18.2646L84.0799 16.4442C83.4421 17.4758 82.9782 17.8398 82.2823 17.8398Z" fill="black"/>
    <path d="M94.459 9.64828C93.2413 9.64828 92.5455 10.073 91.8497 10.6192V5.7041L88.3125 7.16041V20.6313H91.8497V14.5026C91.8497 13.1677 92.3135 12.8036 93.0674 12.8036C93.7632 12.8036 94.2271 13.1677 94.2271 14.5633V20.6313H97.7643V14.0779C97.7643 11.2259 96.6625 9.64828 94.459 9.64828Z" fill="black"/>
    <path d="M106.231 17.415C104.607 17.415 103.911 15.6552 103.911 13.4708C103.911 11.2256 104.607 9.52661 106.173 9.52661C107.448 9.52661 107.912 10.3761 108.376 11.7111L111.797 10.3154C110.87 7.58486 109.536 6.06787 106.173 6.06787C102.52 6.06787 99.9102 8.85913 99.9102 13.4708C99.9102 17.7184 102.056 20.8737 106.173 20.8737C109.42 20.8737 110.928 19.0533 111.855 17.1722L108.666 15.4125C107.97 16.7475 107.448 17.415 106.231 17.415Z" fill="black"/>
    <path d="M117.596 10.6795V9.89067H114.059V20.631H117.596V14.745C117.596 13.4101 118.118 12.9853 118.987 12.9853C119.683 12.9853 120.205 13.3494 120.611 13.8955L121.423 10.0727C121.017 9.82999 120.495 9.64795 119.741 9.64795C118.871 9.64795 118.176 10.0727 117.596 10.6795Z" fill="black"/>
    <path d="M129.019 16.0193C129.019 17.3542 128.555 17.7183 127.859 17.7183C127.163 17.7183 126.699 17.3542 126.699 15.9586V9.89062H123.162V16.444C123.162 19.296 124.264 20.8736 126.467 20.8736C127.685 20.8736 128.381 20.4489 129.019 19.9028V20.6309H132.556V9.89062H129.019V16.0193Z" fill="black"/>
    <path d="M141.196 9.64795C139.978 9.64795 139.282 10.0727 138.587 10.6188V9.89067H135.107V20.631H138.645V14.5023C138.645 13.1674 139.108 12.8033 139.862 12.8033C140.558 12.8033 141.022 13.1674 141.022 14.563V20.631H144.559V14.0776C144.559 11.2256 143.457 9.64795 141.196 9.64795Z" fill="black"/>
    <path d="M151.518 17.8398C150.532 17.8398 150.068 16.9296 150.068 15.2306C150.068 13.5316 150.532 12.5607 151.402 12.5607C152.156 12.5607 152.503 12.9855 152.967 13.9563L155.403 12.0146C154.475 10.4976 153.373 9.5874 151.46 9.5874C148.154 9.5874 146.589 11.8325 146.589 15.1699C146.589 18.8107 148.386 20.8131 151.402 20.8131C153.199 20.8131 154.359 20.085 155.519 18.2646L153.315 16.4442C152.677 17.4758 152.213 17.8398 151.518 17.8398Z" fill="black"/>
    <path d="M163.694 9.64828C162.477 9.64828 161.781 10.073 161.085 10.6192V5.7041L157.548 7.16041V20.6313H161.085V14.5026C161.085 13.1677 161.549 12.8036 162.303 12.8036C162.999 12.8036 163.462 13.1677 163.462 14.5633V20.6313H167V14.0779C167 11.2259 165.898 9.64828 163.694 9.64828Z" fill="black"/>
</svg>
